<svg xmlns="http://www.w3.org/2000/svg" width="490" height="381" fill="none" viewBox="0 0 490 381"><style type="text/css">.mono{font-family:SFMono-Regular,Menlo,Monaco,Consolas,&quot;Liberation Mono&quot;,&quot;Courier New&quot;,monospace}</style><g id="Group 71"><g id="Group 65"><path id="Rectangle 40" fill="#282A36" d="M0 32H490V375C490 378.314 487.314 381 484 381H5.99999C2.68628 381 0 378.314 0 375V32Z"/><text id="1" fill="#fff" class="mono" font-size="18" font-weight="500" letter-spacing="0em" xml:space="preserve" style="white-space:pre"><tspan x="29.914" y="87.25">1</tspan></text><text id="2" fill="#fff" class="mono" font-size="18" font-weight="500" letter-spacing="0em" xml:space="preserve" style="white-space:pre"><tspan x="29.914" y="154.221">2</tspan></text><text id="5" fill="#fff" class="mono" font-size="18" font-weight="500" letter-spacing="0em" xml:space="preserve" style="white-space:pre"><tspan x="29.914" y="355.178">5</tspan></text><path id="Rectangle 14" fill="#2F313C" d="M0 6C0 2.68629 2.68629 0 6 0H484C487.314 0 490 2.68629 490 6V32H0V6Z"/><circle id="Ellipse 11" cx="20.179" cy="16.144" r="5.381" fill="#6422F1"/><circle id="Ellipse 12" cx="35.246" cy="16.144" r="5.381" fill="#F46591"/><circle id="Ellipse 13" cx="50.314" cy="16.144" r="5.381" fill="#2BD38D"/><g id="Group 64"><rect id="Rectangle 41" width="219.559" height="25.831" x="178.391" y="66.729" fill="#fff" fill-opacity=".2" rx="12.915"/><rect id="Rectangle 42" width="84.309" height="26.563" x="77.265" y="66.346" fill="#fff" fill-opacity=".2" rx="13.282"/></g></g><rect id="Rectangle 48" width="8.61" height="25.831" x="76.221" y="327.359" fill="#F35183"/></g></svg>