<svg xmlns="http://www.w3.org/2000/svg" width="1000" height="150"><defs><style type="text/css">@namespace &quot;http://www.w3.org/2000/svg&quot;;.line{fill:none;stroke:#636273}text.nonterminal,text.terminal{font-family:-apple-system,BlinkMacSystemFont,&quot;Segoe UI&quot;,Roboto,Ubuntu,Cantarell,Helvetica,sans-serif;font-size:12px}text.terminal{fill:#fff;font-weight:700}text.nonterminal{fill:#e289a4;font-weight:400}polygon,rect{fill:none;stroke:none}rect.terminal{fill:none;stroke:#be2f5b}rect.nonterminal{fill:rgba(255,255,255,.1);stroke:none}</style></defs><polygon points="9 17 1 13 1 21"/><polygon points="17 17 9 13 9 21"/><rect width="64" height="32" x="31" y="3" rx="10"/><rect width="64" height="32" x="29" y="1" class="terminal" rx="10"/><text x="39" y="21" class="terminal">ALIGN</text><rect width="38" height="32" x="115" y="3" rx="10"/><rect width="38" height="32" x="113" y="1" class="terminal" rx="10"/><text x="123" y="21" class="terminal">TO</text><rect width="60" height="32" x="193" y="3" rx="10"/><rect width="60" height="32" x="191" y="1" class="terminal" rx="10"/><text x="201" y="21" class="terminal">FIRST</text><rect width="120" height="32" x="273" y="3" rx="10"/><rect width="120" height="32" x="271" y="1" class="terminal" rx="10"/><text x="281" y="21" class="terminal">OBSERVATION</text><rect width="92" height="32" x="193" y="47" rx="10"/><rect width="92" height="32" x="191" y="45" class="terminal" rx="10"/><text x="201" y="65" class="terminal">CALENDAR</text><rect width="54" height="32" x="325" y="47" rx="10"/><rect width="54" height="32" x="323" y="45" class="terminal" rx="10"/><text x="333" y="65" class="terminal">TIME</text><rect width="58" height="32" x="399" y="47" rx="10"/><rect width="58" height="32" x="397" y="45" class="terminal" rx="10"/><text x="407" y="65" class="terminal">ZONE</text><a xmlns:xlink="http://www.w3.org/1999/xlink" xlink:href="#timezone" xlink:title="timezone"><rect width="78" height="32" x="477" y="47"/><rect width="78" height="32" x="475" y="45" class="nonterminal"/><text x="485" y="65" class="nonterminal">timezone</text></a><rect width="58" height="32" x="325" y="91" rx="10"/><rect width="58" height="32" x="323" y="89" class="terminal" rx="10"/><text x="333" y="109" class="terminal">WITH</text><rect width="72" height="32" x="403" y="91" rx="10"/><rect width="72" height="32" x="401" y="89" class="terminal" rx="10"/><text x="411" y="109" class="terminal">OFFSET</text><a xmlns:xlink="http://www.w3.org/1999/xlink" xlink:href="#offset" xlink:title="offset"><rect width="56" height="32" x="495" y="91"/><rect width="56" height="32" x="493" y="89" class="nonterminal"/><text x="503" y="109" class="nonterminal">offset</text></a><svg:path xmlns:svg="http://www.w3.org/2000/svg" d="m17 17 h2 m0 0 h10 m64 0 h10 m0 0 h10 m38 0 h10 m20 0 h10 m60 0 h10 m0 0 h10 m120 0 h10 m0 0 h182 m-422 0 h20 m402 0 h20 m-442 0 q10 0 10 10 m422 0 q0 -10 10 -10 m-432 10 v24 m422 0 v-24 m-422 24 q0 10 10 10 m402 0 q10 0 10 -10 m-412 10 h10 m92 0 h10 m20 0 h10 m54 0 h10 m0 0 h10 m58 0 h10 m0 0 h10 m78 0 h10 m-270 0 h20 m250 0 h20 m-290 0 q10 0 10 10 m270 0 q0 -10 10 -10 m-280 10 v24 m270 0 v-24 m-270 24 q0 10 10 10 m250 0 q10 0 10 -10 m-260 10 h10 m58 0 h10 m0 0 h10 m72 0 h10 m0 0 h10 m56 0 h10 m0 0 h4 m43 -88 h-3" class="line"/><polygon points="613 17 621 13 621 21"/><polygon points="613 17 605 13 605 21"/></svg>