<svg xmlns="http://www.w3.org/2000/svg" width="900" height="37"><defs><style type="text/css">@namespace &quot;http://www.w3.org/2000/svg&quot;;.line{fill:none;stroke:#636273}text.nonterminal,text.terminal{font-family:-apple-system,BlinkMacSystemFont,&quot;Segoe UI&quot;,Roboto,Ubuntu,Cantarell,Helvetica,sans-serif;font-size:12px}text.terminal{fill:#fff;font-weight:700}text.nonterminal{fill:#e289a4;font-weight:400}polygon,rect{fill:none;stroke:none}rect.terminal{fill:none;stroke:#be2f5b}rect.nonterminal{fill:rgba(255,255,255,.1);stroke:none}</style></defs><polygon points="9 17 1 13 1 21"/><polygon points="17 17 9 13 9 21"/><rect width="62" height="32" x="31" y="3" rx="10"/><rect width="62" height="32" x="29" y="1" class="terminal" rx="10"/><text x="39" y="21" class="terminal">ALTER</text><rect width="62" height="32" x="113" y="3" rx="10"/><rect width="62" height="32" x="111" y="1" class="terminal" rx="10"/><text x="121" y="21" class="terminal">TABLE</text><a xmlns:xlink="http://www.w3.org/1999/xlink" xlink:href="#tableName" xlink:title="tableName"><rect width="88" height="32" x="195" y="3"/><rect width="88" height="32" x="193" y="1" class="nonterminal"/><text x="203" y="21" class="nonterminal">tableName</text></a><rect width="62" height="32" x="303" y="3" rx="10"/><rect width="62" height="32" x="301" y="1" class="terminal" rx="10"/><text x="311" y="21" class="terminal">ALTER</text><rect width="78" height="32" x="385" y="3" rx="10"/><rect width="78" height="32" x="383" y="1" class="terminal" rx="10"/><text x="393" y="21" class="terminal">COLUMN</text><a xmlns:xlink="http://www.w3.org/1999/xlink" xlink:href="#columnName" xlink:title="columnName"><rect width="102" height="32" x="483" y="3"/><rect width="102" height="32" x="481" y="1" class="nonterminal"/><text x="491" y="21" class="nonterminal">columnName</text></a><rect width="58" height="32" x="605" y="3" rx="10"/><rect width="58" height="32" x="603" y="1" class="terminal" rx="10"/><text x="613" y="21" class="terminal">DROP</text><rect width="64" height="32" x="683" y="3" rx="10"/><rect width="64" height="32" x="681" y="1" class="terminal" rx="10"/><text x="691" y="21" class="terminal">INDEX</text><svg:path xmlns:svg="http://www.w3.org/2000/svg" d="m91 17 h10 m0 0 h10 m62 0 h10 m0 0 h10 m88 0 h10 m0 0 h10 m62 0 h10 m0 0 h10 m78 0 h10 m0 0 h10 m102 0 h10 m0 0 h10 m58 0 h10 m0 0 h10" class="line"/><polygon points="765 17 773 13 773 21"/><polygon points="765 17 757 13 757 21"/></svg>