<svg xmlns="http://www.w3.org/2000/svg" width="461" height="240"><defs><style type="text/css">@namespace &quot;http://www.w3.org/2000/svg&quot;;.line{fill:none;stroke:#636273}text.nonterminal,text.terminal{font-family:-apple-system,BlinkMacSystemFont,&quot;Segoe UI&quot;,Roboto,Ubuntu,Cantarell,Helvetica,sans-serif;font-size:12px}text.terminal{fill:#fff;font-weight:700}text.nonterminal{fill:#e289a4;font-weight:400}polygon,rect{fill:none;stroke:none}rect.terminal{fill:none;stroke:#be2f5b}rect.nonterminal{fill:rgba(255,255,255,.1);stroke:none}</style></defs><polygon points="9 17 1 13 1 21"/><polygon points="17 17 9 13 9 21"/><rect width="62" height="32" x="31" y="3" rx="10"/><rect width="62" height="32" x="29" y="1" class="terminal" rx="10"/><text x="39" y="21" class="terminal">ALTER</text><rect width="62" height="32" x="113" y="3" rx="10"/><rect width="62" height="32" x="111" y="1" class="terminal" rx="10"/><text x="121" y="21" class="terminal">TABLE</text><a xmlns:xlink="http://www.w3.org/1999/xlink" xlink:href="#tableName" xlink:title="tableName"><rect width="88" height="32" x="195" y="3"/><rect width="88" height="32" x="193" y="1" class="nonterminal"/><text x="203" y="21" class="nonterminal">tableName</text></a><rect width="48" height="32" x="323" y="3" rx="10"/><rect width="48" height="32" x="321" y="1" class="terminal" rx="10"/><text x="331" y="21" class="terminal">ADD</text><rect width="74" height="32" x="323" y="47" rx="10"/><rect width="74" height="32" x="321" y="45" class="terminal" rx="10"/><text x="331" y="65" class="terminal">ATTACH</text><rect width="74" height="32" x="323" y="91" rx="10"/><rect width="74" height="32" x="321" y="89" class="terminal" rx="10"/><text x="331" y="109" class="terminal">DETACH</text><rect width="58" height="32" x="323" y="135" rx="10"/><rect width="58" height="32" x="321" y="133" class="terminal" rx="10"/><text x="331" y="153" class="terminal">DROP</text><rect width="76" height="32" x="323" y="179" rx="10"/><rect width="76" height="32" x="321" y="177" class="terminal" rx="10"/><text x="331" y="197" class="terminal">RENAME</text><rect width="44" height="32" x="323" y="223" rx="10"/><rect width="44" height="32" x="321" y="221" class="terminal" rx="10"/><text x="331" y="241" class="terminal">SET</text><svg:path xmlns:svg="http://www.w3.org/2000/svg" d="m17 17 h2 m0 0 h10 m62 0 h10 m0 0 h10 m62 0 h10 m0 0 h10 m88 0 h10 m20 0 h10 m48 0 h10 m0 0 h28 m-116 0 h20 m96 0 h20 m-136 0 q10 0 10 10 m116 0 q0 -10 10 -10 m-126 10 v24 m116 0 v-24 m-116 24 q0 10 10 10 m96 0 q10 0 10 -10 m-106 10 h10 m74 0 h10 m0 0 h2 m-106 -10 v20 m116 0 v-20 m-116 20 v24 m116 0 v-24 m-116 24 q0 10 10 10 m96 0 q10 0 10 -10 m-106 10 h10 m74 0 h10 m0 0 h2 m-106 -10 v20 m116 0 v-20 m-116 20 v24 m116 0 v-24 m-116 24 q0 10 10 10 m96 0 q10 0 10 -10 m-106 10 h10 m58 0 h10 m0 0 h18 m-106 -10 v20 m116 0 v-20 m-116 20 v24 m116 0 v-24 m-116 24 q0 10 10 10 m96 0 q10 0 10 -10 m-106 10 h10 m76 0 h10 m-106 -10 v20 m116 0 v-20 m-116 20 v24 m116 0 v-24 m-116 24 q0 10 10 10 m96 0 q10 0 10 -10 m-106 10 h10 m44 0 h10 m0 0 h32 m23 -220 h-3" class="line"/><polygon points="437 17 445 13 445 21"/><polygon points="437 17 429 13 429 21"/></svg>