<svg xmlns="http://www.w3.org/2000/svg" width="479" height="81"><defs><style type="text/css">@namespace &quot;http://www.w3.org/2000/svg&quot;;.line{fill:none;stroke:#636273}text.nonterminal,text.terminal{font-family:-apple-system,BlinkMacSystemFont,&quot;Segoe UI&quot;,Roboto,Ubuntu,Cantarell,Helvetica,sans-serif;font-size:12px}text.terminal{fill:#fff;font-weight:700}text.nonterminal{fill:#e289a4;font-weight:400}polygon,rect{fill:none;stroke:none}rect.terminal{fill:none;stroke:#be2f5b}rect.nonterminal{fill:rgba(255,255,255,.1);stroke:none}</style></defs><polygon points="9 61 1 57 1 65"/><polygon points="17 61 9 57 9 65"/><rect width="48" height="32" x="31" y="47" rx="10"/><rect width="48" height="32" x="29" y="45" class="terminal" rx="10"/><text x="39" y="65" class="terminal">ADD</text><rect width="78" height="32" x="99" y="47" rx="10"/><rect width="78" height="32" x="97" y="45" class="terminal" rx="10"/><text x="107" y="65" class="terminal">COLUMN</text><a xmlns:xlink="http://www.w3.org/1999/xlink" xlink:href="#columnName" xlink:title="columnName"><rect width="102" height="32" x="217" y="47"/><rect width="102" height="32" x="215" y="45" class="nonterminal"/><text x="225" y="65" class="nonterminal">columnName</text></a><a xmlns:xlink="http://www.w3.org/1999/xlink" xlink:href="#typeDef" xlink:title="typeDef"><rect width="70" height="32" x="339" y="47"/><rect width="70" height="32" x="337" y="45" class="nonterminal"/><text x="347" y="65" class="nonterminal">typeDef</text></a><rect width="24" height="32" x="217" y="3" rx="10"/><rect width="24" height="32" x="215" y="1" class="terminal" rx="10"/><text x="225" y="21" class="terminal">,</text><svg:path xmlns:svg="http://www.w3.org/2000/svg" d="m17 61 h2 m0 0 h10 m48 0 h10 m0 0 h10 m78 0 h10 m20 0 h10 m102 0 h10 m0 0 h10 m70 0 h10 m-232 0 l20 0 m-1 0 q-9 0 -9 -10 l0 -24 q0 -10 10 -10 m212 44 l20 0 m-20 0 q10 0 10 -10 l0 -24 q0 -10 -10 -10 m-212 0 h10 m24 0 h10 m0 0 h168 m23 44 h-3" class="line"/><polygon points="447 61 455 57 455 65"/><polygon points="447 61 439 57 439 65"/></svg>