<svg xmlns="http://www.w3.org/2000/svg" width="605" height="260"><defs><style type="text/css">@namespace &quot;http://www.w3.org/2000/svg&quot;;.line{fill:none;stroke:#636273}text.nonterminal,text.terminal{font-family:-apple-system,BlinkMacSystemFont,&quot;Segoe UI&quot;,Roboto,Ubuntu,Cantarell,Helvetica,sans-serif;font-size:12px}text.terminal{fill:#fff;font-weight:700}text.nonterminal{fill:#e289a4;font-weight:400}polygon,rect{fill:none;stroke:none}rect.terminal{fill:none;stroke:#be2f5b}rect.nonterminal{fill:rgba(255,255,255,.1);stroke:none}</style></defs><polygon points="9 17 1 13 1 21"/><polygon points="17 17 9 13 9 21"/><rect width="44" height="32" x="31" y="3" rx="10"/><rect width="44" height="32" x="29" y="1" class="terminal" rx="10"/><text x="39" y="21" class="terminal">SET</text><rect width="68" height="32" x="95" y="3" rx="10"/><rect width="68" height="32" x="93" y="1" class="terminal" rx="10"/><text x="103" y="21" class="terminal">PARAM</text><rect width="176" height="32" x="203" y="3" rx="10"/><rect width="176" height="32" x="201" y="1" class="terminal" rx="10"/><text x="211" y="21" class="terminal">maxUncommittedRows</text><rect width="30" height="32" x="399" y="3" rx="10"/><rect width="30" height="32" x="397" y="1" class="terminal" rx="10"/><text x="407" y="21" class="terminal">=</text><a xmlns:xlink="http://www.w3.org/1999/xlink" xlink:href="#n" xlink:title="n"><rect width="28" height="32" x="449" y="3"/><rect width="28" height="32" x="447" y="1" class="nonterminal"/><text x="457" y="21" class="nonterminal">n</text></a><rect width="94" height="32" x="203" y="47" rx="10"/><rect width="94" height="32" x="201" y="45" class="terminal" rx="10"/><text x="211" y="65" class="terminal">commitLag</text><rect width="30" height="32" x="317" y="47" rx="10"/><rect width="30" height="32" x="315" y="45" class="terminal" rx="10"/><text x="325" y="65" class="terminal">=</text><a xmlns:xlink="http://www.w3.org/1999/xlink" xlink:href="#n" xlink:title="n"><rect width="28" height="32" x="367" y="47"/><rect width="28" height="32" x="365" y="45" class="nonterminal"/><text x="375" y="65" class="nonterminal">n</text></a><rect width="36" height="32" x="435" y="47" rx="10"/><rect width="36" height="32" x="433" y="45" class="terminal" rx="10"/><text x="443" y="65" class="terminal">us</text><rect width="26" height="32" x="435" y="91" rx="10"/><rect width="26" height="32" x="433" y="89" class="terminal" rx="10"/><text x="443" y="109" class="terminal">s</text><rect width="32" height="32" x="435" y="135" rx="10"/><rect width="32" height="32" x="433" y="133" class="terminal" rx="10"/><text x="443" y="153" class="terminal">m</text><rect width="28" height="32" x="435" y="179" rx="10"/><rect width="28" height="32" x="433" y="177" class="terminal" rx="10"/><text x="443" y="197" class="terminal">h</text><rect width="28" height="32" x="435" y="223" rx="10"/><rect width="28" height="32" x="433" y="221" class="terminal" rx="10"/><text x="443" y="241" class="terminal">d</text><svg:path xmlns:svg="http://www.w3.org/2000/svg" d="m17 17 h2 m0 0 h10 m44 0 h10 m0 0 h10 m68 0 h10 m20 0 h10 m176 0 h10 m0 0 h10 m30 0 h10 m0 0 h10 m28 0 h10 m0 0 h14 m-328 0 h20 m308 0 h20 m-348 0 q10 0 10 10 m328 0 q0 -10 10 -10 m-338 10 v24 m328 0 v-24 m-328 24 q0 10 10 10 m308 0 q10 0 10 -10 m-318 10 h10 m94 0 h10 m0 0 h10 m30 0 h10 m0 0 h10 m28 0 h10 m20 0 h10 m36 0 h10 m-76 0 h20 m56 0 h20 m-96 0 q10 0 10 10 m76 0 q0 -10 10 -10 m-86 10 v24 m76 0 v-24 m-76 24 q0 10 10 10 m56 0 q10 0 10 -10 m-66 10 h10 m26 0 h10 m0 0 h10 m-66 -10 v20 m76 0 v-20 m-76 20 v24 m76 0 v-24 m-76 24 q0 10 10 10 m56 0 q10 0 10 -10 m-66 10 h10 m32 0 h10 m0 0 h4 m-66 -10 v20 m76 0 v-20 m-76 20 v24 m76 0 v-24 m-76 24 q0 10 10 10 m56 0 q10 0 10 -10 m-66 10 h10 m28 0 h10 m0 0 h8 m-66 -10 v20 m76 0 v-20 m-76 20 v24 m76 0 v-24 m-76 24 q0 10 10 10 m56 0 q10 0 10 -10 m-66 10 h10 m28 0 h10 m0 0 h8 m43 -220 h-3" class="line"/><polygon points="529 17 537 13 537 21"/><polygon points="529 17 521 13 521 21"/></svg>