<svg xmlns="http://www.w3.org/2000/svg" width="861" height="81"><defs><style type="text/css">@namespace &quot;http://www.w3.org/2000/svg&quot;;.line{fill:none;stroke:#636273}text.nonterminal,text.terminal{font-family:-apple-system,BlinkMacSystemFont,&quot;Segoe UI&quot;,Roboto,Ubuntu,Cantarell,Helvetica,sans-serif;font-size:12px}text.terminal{fill:#fff;font-weight:700}text.nonterminal{fill:#e289a4;font-weight:400}polygon,rect{fill:none;stroke:none}rect.terminal{fill:none;stroke:#be2f5b}rect.nonterminal{fill:rgba(255,255,255,.1);stroke:none}</style></defs><polygon points="9 17 1 13 1 21"/><polygon points="17 17 9 13 9 21"/><rect width="76" height="32" x="31" y="3" rx="10"/><rect width="76" height="32" x="29" y="1" class="terminal" rx="10"/><text x="39" y="21" class="terminal">RENAME</text><a xmlns:xlink="http://www.w3.org/1999/xlink" xlink:href="#columnName" xlink:title="columnName"><rect width="102" height="32" x="127" y="3"/><rect width="102" height="32" x="125" y="1" class="nonterminal"/><text x="135" y="21" class="nonterminal">columnName</text></a><rect width="38" height="32" x="249" y="3" rx="10"/><rect width="38" height="32" x="247" y="1" class="terminal" rx="10"/><text x="257" y="21" class="terminal">TO</text><a xmlns:xlink="http://www.w3.org/1999/xlink" xlink:href="#columnName" xlink:title="columnName"><rect width="102" height="32" x="307" y="3"/><rect width="102" height="32" x="305" y="1" class="nonterminal"/><text x="315" y="21" class="nonterminal">columnName</text></a><svg:path xmlns:svg="http://www.w3.org/2000/svg" d="m17 17 h2 m0 0 h10 m76 0 h10 m0 0 h10 m102 0 h10 m0 0 h10 m38 0 h10 m0 0 h10 m102 0 h10 m3 0 h-3" class="line"/><polygon points="427 17 435 13 435 21"/><polygon points="427 17 419 13 419 21"/></svg>