<svg xmlns="http://www.w3.org/2000/svg" width="500" height="37"><defs><style type="text/css">@namespace &quot;http://www.w3.org/2000/svg&quot;;.line{fill:none;stroke:#636273}text.nonterminal,text.terminal{font-family:-apple-system,BlinkMacSystemFont,&quot;Segoe UI&quot;,Roboto,Ubuntu,Cantarell,Helvetica,sans-serif;font-size:12px}text.terminal{fill:#fff;font-weight:700}text.nonterminal{fill:#e289a4;font-weight:400}polygon,rect{fill:none;stroke:none}rect.terminal{fill:none;stroke:#be2f5b}rect.nonterminal{fill:rgba(255,255,255,.1);stroke:none}</style></defs><polygon points="9 17 1 13 1 21"/><polygon points="17 17 9 13 9 21"/><rect width="62" height="32" x="31" y="3" rx="10"/><rect width="62" height="32" x="29" y="1" class="terminal" rx="10"/><text x="39" y="21" class="terminal">ALTER</text><rect width="78" height="32" x="113" y="3" rx="10"/><rect width="78" height="32" x="111" y="1" class="terminal" rx="10"/><text x="121" y="21" class="terminal">COLUMN</text><a xmlns:xlink="http://www.w3.org/1999/xlink" xlink:href="#columnName" xlink:title="columnName"><rect width="102" height="32" x="211" y="3"/><rect width="102" height="32" x="209" y="1" class="nonterminal"/><text x="219" y="21" class="nonterminal">columnName</text></a><rect width="48" height="32" x="333" y="3" rx="10"/><rect width="48" height="32" x="331" y="1" class="terminal" rx="10"/><text x="341" y="21" class="terminal">ADD</text><rect width="64" height="32" x="401" y="3" rx="10"/><rect width="64" height="32" x="399" y="1" class="terminal" rx="10"/><text x="409" y="21" class="terminal">INDEX</text><svg:path xmlns:svg="http://www.w3.org/2000/svg" d="m17 17 h2 m0 0 h10 m62 0 h10 m0 0 h10 m78 0 h10 m0 0 h10 m102 0 h10 m0 0 h10 m48 0 h10 m0 0 h10 m64 0 h10 m3 0 h-3" class="line"/><polygon points="483 17 491 13 491 21"/><polygon points="483 17 475 13 475 21"/></svg>