<svg xmlns="http://www.w3.org/2000/svg" width="447" height="125"><defs><style type="text/css">@namespace &quot;http://www.w3.org/2000/svg&quot;;.line{fill:none;stroke:#636273}text.nonterminal,text.terminal{font-family:-apple-system,BlinkMacSystemFont,&quot;Segoe UI&quot;,Roboto,Ubuntu,Cantarell,Helvetica,sans-serif;font-size:12px}text.terminal{fill:#fff;font-weight:700}text.nonterminal{fill:#e289a4;font-weight:400}polygon,rect{fill:none;stroke:none}rect.terminal{fill:none;stroke:#be2f5b}rect.nonterminal{fill:rgba(255,255,255,.1);stroke:none}</style></defs><polygon points="9 61 1 57 1 65"/><polygon points="17 61 9 57 9 65"/><rect width="74" height="32" x="31" y="47" rx="10"/><rect width="74" height="32" x="29" y="45" class="terminal" rx="10"/><text x="39" y="65" class="terminal">BACKUP</text><rect width="62" height="32" x="145" y="47" rx="10"/><rect width="62" height="32" x="143" y="45" class="terminal" rx="10"/><text x="153" y="65" class="terminal">TABLE</text><a xmlns:xlink="http://www.w3.org/1999/xlink" xlink:href="#tableName" xlink:title="tableName"><rect width="88" height="32" x="247" y="47"/><rect width="88" height="32" x="245" y="45" class="nonterminal"/><text x="255" y="65" class="nonterminal">tableName</text></a><rect width="24" height="32" x="247" y="3" rx="10"/><rect width="24" height="32" x="245" y="1" class="terminal" rx="10"/><text x="255" y="21" class="terminal">,</text><rect width="92" height="32" x="145" y="91" rx="10"/><rect width="92" height="32" x="143" y="89" class="terminal" rx="10"/><text x="153" y="109" class="terminal">DATABASE</text><rect width="24" height="32" x="395" y="47" rx="10"/><rect width="24" height="32" x="393" y="45" class="terminal" rx="10"/><text x="403" y="65" class="terminal">;</text><path xmlns:svg="http://www.w3.org/2000/svg" d="m17 61 h2 m0 0 h10 m74 0 h10 m20 0 h10 m62 0 h10 m20 0 h10 m88 0 h10 m-128 0 l20 0 m-1 0 q-9 0 -9 -10 l0 -24 q0 -10 10 -10 m108 44 l20 0 m-20 0 q10 0 10 -10 l0 -24 q0 -10 -10 -10 m-108 0 h10 m24 0 h10 m0 0 h64 m-230 44 h20 m230 0 h20 m-270 0 q10 0 10 10 m250 0 q0 -10 10 -10 m-260 10 v24 m250 0 v-24 m-250 24 q0 10 10 10 m230 0 q10 0 10 -10 m-240 10 h10 m92 0 h10 m0 0 h118 m20 -44 h10 m24 0 h10 m3 0 h-3" class="line"/><polygon points="437 61 445 57 445 65"/><polygon points="437 61 429 57 429 65"/></svg>