<svg xmlns="http://www.w3.org/2000/svg" width="779" height="85"><defs><style type="text/css">@namespace &quot;http://www.w3.org/2000/svg&quot;;.line{fill:none;stroke:#636273}text.nonterminal,text.terminal{font-family:-apple-system,BlinkMacSystemFont,&quot;Segoe UI&quot;,Roboto,Ubuntu,Cantarell,Helvetica,sans-serif;font-size:12px}text.terminal{fill:#fff;font-weight:700}text.nonterminal{fill:#e289a4;font-weight:400}polygon,rect{fill:none;stroke:none}rect.terminal{fill:none;stroke:#be2f5b}rect.nonterminal{fill:rgba(255,255,255,.1);stroke:none}</style></defs><polygon points="9 33 1 29 1 37"/><polygon points="17 33 9 29 9 37"/><rect width="56" height="32" x="31" y="19" rx="10"/><rect width="56" height="32" x="29" y="17" class="terminal" rx="10"/><text x="39" y="37" class="terminal">CASE</text><rect width="62" height="32" x="147" y="19" rx="10"/><rect width="62" height="32" x="145" y="17" class="terminal" rx="10"/><text x="155" y="37" class="terminal">WHEN</text><a xmlns:xlink="http://www.w3.org/1999/xlink" xlink:href="#condition" xlink:title="condition"><rect width="78" height="32" x="229" y="19"/><rect width="78" height="32" x="227" y="17" class="nonterminal"/><text x="237" y="37" class="nonterminal">condition</text></a><rect width="56" height="32" x="327" y="19" rx="10"/><rect width="56" height="32" x="325" y="17" class="terminal" rx="10"/><text x="335" y="37" class="terminal">THEN</text><a xmlns:xlink="http://www.w3.org/1999/xlink" xlink:href="#value" xlink:title="value"><rect width="54" height="32" x="403" y="19"/><rect width="54" height="32" x="401" y="17" class="nonterminal"/><text x="411" y="37" class="nonterminal">value</text></a><rect width="52" height="32" x="537" y="51" rx="10"/><rect width="52" height="32" x="535" y="49" class="terminal" rx="10"/><text x="545" y="69" class="terminal">ELSE</text><a xmlns:xlink="http://www.w3.org/1999/xlink" xlink:href="#value" xlink:title="value"><rect width="54" height="32" x="609" y="51"/><rect width="54" height="32" x="607" y="49" class="nonterminal"/><text x="617" y="69" class="nonterminal">value</text></a><rect width="48" height="32" x="703" y="19" rx="10"/><rect width="48" height="32" x="701" y="17" class="terminal" rx="10"/><text x="711" y="37" class="terminal">END</text><path xmlns:svg="http://www.w3.org/2000/svg" d="m17 33 h2 m0 0 h10 m56 0 h10 m40 0 h10 m62 0 h10 m0 0 h10 m78 0 h10 m0 0 h10 m56 0 h10 m0 0 h10 m54 0 h10 m-350 0 l20 0 m-1 0 q-9 0 -9 -10 l0 -12 q0 -10 10 -10 m330 32 l20 0 m-20 0 q10 0 10 -10 l0 -12 q0 -10 -10 -10 m-330 0 h10 m0 0 h320 m-370 32 h20 m370 0 h20 m-410 0 q10 0 10 10 m390 0 q0 -10 10 -10 m-400 10 v14 m390 0 v-14 m-390 14 q0 10 10 10 m370 0 q10 0 10 -10 m-380 10 h10 m0 0 h360 m40 -34 h10 m0 0 h136 m-166 0 h20 m146 0 h20 m-186 0 q10 0 10 10 m166 0 q0 -10 10 -10 m-176 10 v12 m166 0 v-12 m-166 12 q0 10 10 10 m146 0 q10 0 10 -10 m-156 10 h10 m52 0 h10 m0 0 h10 m54 0 h10 m20 -32 h10 m48 0 h10 m3 0 h-3" class="line"/><polygon points="769 33 777 29 777 37"/><polygon points="769 33 761 29 761 37"/></svg>