<svg xmlns="http://www.w3.org/2000/svg" width="443" height="37"><defs><style type="text/css">@namespace &quot;http://www.w3.org/2000/svg&quot;;.line{fill:none;stroke:#636273}text.nonterminal,text.terminal{font-family:-apple-system,BlinkMacSystemFont,&quot;Segoe UI&quot;,Roboto,Ubuntu,Cantarell,Helvetica,sans-serif;font-size:12px}text.terminal{fill:#fff;font-weight:700}text.nonterminal{fill:#e289a4;font-weight:400}polygon,rect{fill:none;stroke:none}rect.terminal{fill:none;stroke:#be2f5b}rect.nonterminal{fill:rgba(255,255,255,.1);stroke:none}</style></defs><polygon points="9 17 1 13 1 21"/><polygon points="17 17 9 13 9 21"/><rect width="56" height="32" x="31" y="3" rx="10"/><rect width="56" height="32" x="29" y="1" class="terminal" rx="10"/><text x="39" y="21" class="terminal">CAST</text><rect width="26" height="32" x="107" y="3" rx="10"/><rect width="26" height="32" x="105" y="1" class="terminal" rx="10"/><text x="115" y="21" class="terminal">(</text><a xmlns:xlink="http://www.w3.org/1999/xlink" xlink:href="#expression" xlink:title="expression"><rect width="90" height="32" x="153" y="3"/><rect width="90" height="32" x="151" y="1" class="nonterminal"/><text x="161" y="21" class="nonterminal">expression</text></a><rect width="38" height="32" x="263" y="3" rx="10"/><rect width="38" height="32" x="261" y="1" class="terminal" rx="10"/><text x="271" y="21" class="terminal">AS</text><a xmlns:xlink="http://www.w3.org/1999/xlink" xlink:href="#type" xlink:title="type"><rect width="48" height="32" x="321" y="3"/><rect width="48" height="32" x="319" y="1" class="nonterminal"/><text x="329" y="21" class="nonterminal">type</text></a><rect width="26" height="32" x="389" y="3" rx="10"/><rect width="26" height="32" x="387" y="1" class="terminal" rx="10"/><text x="397" y="21" class="terminal">)</text><path xmlns:svg="http://www.w3.org/2000/svg" d="m17 17 h2 m0 0 h10 m56 0 h10 m0 0 h10 m26 0 h10 m0 0 h10 m90 0 h10 m0 0 h10 m38 0 h10 m0 0 h10 m48 0 h10 m0 0 h10 m26 0 h10 m3 0 h-3" class="line"/><polygon points="433 17 441 13 441 21"/><polygon points="433 17 425 13 425 21"/></svg>