<svg xmlns="http://www.w3.org/2000/svg" width="449" height="37"><defs><style type="text/css">@namespace &quot;http://www.w3.org/2000/svg&quot;;.line{fill:none;stroke:#636273}text.nonterminal,text.terminal{font-family:-apple-system,BlinkMacSystemFont,&quot;Segoe UI&quot;,Roboto,Ubuntu,Cantarell,Helvetica,sans-serif;font-size:12px}text.terminal{fill:#fff;font-weight:700}text.nonterminal{fill:#e289a4;font-weight:400}polygon,rect{fill:none;stroke:none}rect.terminal{fill:none;stroke:#be2f5b}rect.nonterminal{fill:rgba(255,255,255,.1);stroke:none}</style></defs><polygon points="9 17 1 13 1 21"/><polygon points="17 17 9 13 9 21"/><rect width="48" height="32" x="31" y="3" rx="10"/><rect width="48" height="32" x="29" y="1" class="terminal" rx="10"/><text x="39" y="21" class="terminal">cast</text><rect width="26" height="32" x="99" y="3" rx="10"/><rect width="26" height="32" x="97" y="1" class="terminal" rx="10"/><text x="107" y="21" class="terminal">(</text><a xmlns:xlink="http://www.w3.org/1999/xlink" xlink:href="#columnRef" xlink:title="columnRef"><rect width="86" height="32" x="145" y="3"/><rect width="86" height="32" x="143" y="1" class="nonterminal"/><text x="153" y="21" class="nonterminal">columnRef</text></a><rect width="34" height="32" x="251" y="3" rx="10"/><rect width="34" height="32" x="249" y="1" class="terminal" rx="10"/><text x="259" y="21" class="terminal">as</text><a xmlns:xlink="http://www.w3.org/1999/xlink" xlink:href="#typeDef" xlink:title="typeDef"><rect width="70" height="32" x="305" y="3"/><rect width="70" height="32" x="303" y="1" class="nonterminal"/><text x="313" y="21" class="nonterminal">typeDef</text></a><rect width="26" height="32" x="395" y="3" rx="10"/><rect width="26" height="32" x="393" y="1" class="terminal" rx="10"/><text x="403" y="21" class="terminal">)</text><path xmlns:svg="http://www.w3.org/2000/svg" d="m17 17 h2 m0 0 h10 m48 0 h10 m0 0 h10 m26 0 h10 m0 0 h10 m86 0 h10 m0 0 h10 m34 0 h10 m0 0 h10 m70 0 h10 m0 0 h10 m26 0 h10 m3 0 h-3" class="line"/><polygon points="439 17 447 13 447 21"/><polygon points="439 17 431 13 431 21"/></svg>