<svg xmlns="http://www.w3.org/2000/svg" width="795" height="765"><defs><style type="text/css">@namespace &quot;http://www.w3.org/2000/svg&quot;;.line{fill:none;stroke:#636273}text.nonterminal,text.terminal{font-family:-apple-system,BlinkMacSystemFont,&quot;Segoe UI&quot;,Roboto,Ubuntu,Cantarell,Helvetica,sans-serif;font-size:12px}text.terminal{fill:#fff;font-weight:700}text.nonterminal{fill:#e289a4;font-weight:400}polygon,rect{fill:none;stroke:none}rect.terminal{fill:none;stroke:#be2f5b}rect.nonterminal{fill:rgba(255,255,255,.1);stroke:none}</style></defs><polygon points="9 17 1 13 1 21"/><polygon points="17 17 9 13 9 21"/><rect width="72" height="32" x="51" y="3" rx="10"/><rect width="72" height="32" x="49" y="1" class="terminal" rx="10"/><text x="59" y="21" class="terminal">boolean</text><rect width="50" height="32" x="51" y="47" rx="10"/><rect width="50" height="32" x="49" y="45" class="terminal" rx="10"/><text x="59" y="65" class="terminal">byte</text><rect width="54" height="32" x="51" y="91" rx="10"/><rect width="54" height="32" x="49" y="89" class="terminal" rx="10"/><text x="59" y="109" class="terminal">short</text><rect width="50" height="32" x="51" y="135" rx="10"/><rect width="50" height="32" x="49" y="133" class="terminal" rx="10"/><text x="59" y="153" class="terminal">char</text><rect width="38" height="32" x="51" y="179" rx="10"/><rect width="38" height="32" x="49" y="177" class="terminal" rx="10"/><text x="59" y="197" class="terminal">int</text><rect width="50" height="32" x="51" y="223" rx="10"/><rect width="50" height="32" x="49" y="221" class="terminal" rx="10"/><text x="59" y="241" class="terminal">float</text><rect width="68" height="32" x="51" y="267" rx="10"/><rect width="68" height="32" x="49" y="265" class="terminal" rx="10"/><text x="59" y="285" class="terminal">symbol</text><rect width="76" height="32" x="159" y="299" rx="10"/><rect width="76" height="32" x="157" y="297" class="terminal" rx="10"/><text x="167" y="317" class="terminal">CAPACITY</text><a xmlns:xlink="http://www.w3.org/1999/xlink" xlink:href="#distinctValueEstimate" xlink:title="distinctValueEstimate"><rect width="156" height="32" x="255" y="299"/><rect width="156" height="32" x="253" y="297" class="nonterminal"/><text x="263" y="317" class="nonterminal">distinctValueEstimate</text></a><rect width="66" height="32" x="451" y="331" rx="10"/><rect width="66" height="32" x="449" y="329" class="terminal" rx="10"/><text x="459" y="349" class="terminal">CACHE</text><rect width="86" height="32" x="451" y="375" rx="10"/><rect width="86" height="32" x="449" y="373" class="terminal" rx="10"/><text x="459" y="393" class="terminal">NOCACHE</text><a xmlns:xlink="http://www.w3.org/1999/xlink" xlink:href="#inlineIndexDef" xlink:title="inlineIndexDef"><rect width="110" height="32" x="617" y="299"/><rect width="110" height="32" x="615" y="297" class="nonterminal"/><text x="625" y="317" class="nonterminal">inlineIndexDef</text></a><rect width="60" height="32" x="51" y="419" rx="10"/><rect width="60" height="32" x="49" y="417" class="terminal" rx="10"/><text x="59" y="437" class="terminal">string</text><rect width="48" height="32" x="51" y="463" rx="10"/><rect width="48" height="32" x="49" y="461" class="terminal" rx="10"/><text x="59" y="481" class="terminal">long</text><rect width="50" height="32" x="51" y="507" rx="10"/><rect width="50" height="32" x="49" y="505" class="terminal" rx="10"/><text x="59" y="525" class="terminal">date</text><rect width="92" height="32" x="51" y="551" rx="10"/><rect width="92" height="32" x="49" y="549" class="terminal" rx="10"/><text x="59" y="569" class="terminal">timestamp</text><rect width="66" height="32" x="51" y="595" rx="10"/><rect width="66" height="32" x="49" y="593" class="terminal" rx="10"/><text x="59" y="613" class="terminal">double</text><rect width="62" height="32" x="51" y="639" rx="10"/><rect width="62" height="32" x="49" y="637" class="terminal" rx="10"/><text x="59" y="657" class="terminal">binary</text><rect width="76" height="32" x="51" y="683" rx="10"/><rect width="76" height="32" x="49" y="681" class="terminal" rx="10"/><text x="59" y="701" class="terminal">long256</text><rect width="138" height="32" x="51" y="727" rx="10"/><rect width="138" height="32" x="49" y="725" class="terminal" rx="10"/><text x="59" y="745" class="terminal">geohash(&lt;size&gt;)</text><svg:path xmlns:svg="http://www.w3.org/2000/svg" d="m17 17 h2 m20 0 h10 m72 0 h10 m0 0 h624 m-736 0 h20 m716 0 h20 m-756 0 q10 0 10 10 m736 0 q0 -10 10 -10 m-746 10 v24 m736 0 v-24 m-736 24 q0 10 10 10 m716 0 q10 0 10 -10 m-726 10 h10 m50 0 h10 m0 0 h646 m-726 -10 v20 m736 0 v-20 m-736 20 v24 m736 0 v-24 m-736 24 q0 10 10 10 m716 0 q10 0 10 -10 m-726 10 h10 m54 0 h10 m0 0 h642 m-726 -10 v20 m736 0 v-20 m-736 20 v24 m736 0 v-24 m-736 24 q0 10 10 10 m716 0 q10 0 10 -10 m-726 10 h10 m50 0 h10 m0 0 h646 m-726 -10 v20 m736 0 v-20 m-736 20 v24 m736 0 v-24 m-736 24 q0 10 10 10 m716 0 q10 0 10 -10 m-726 10 h10 m38 0 h10 m0 0 h658 m-726 -10 v20 m736 0 v-20 m-736 20 v24 m736 0 v-24 m-736 24 q0 10 10 10 m716 0 q10 0 10 -10 m-726 10 h10 m50 0 h10 m0 0 h646 m-726 -10 v20 m736 0 v-20 m-736 20 v24 m736 0 v-24 m-736 24 q0 10 10 10 m716 0 q10 0 10 -10 m-726 10 h10 m68 0 h10 m20 0 h10 m0 0 h408 m-438 0 h20 m418 0 h20 m-458 0 q10 0 10 10 m438 0 q0 -10 10 -10 m-448 10 v12 m438 0 v-12 m-438 12 q0 10 10 10 m418 0 q10 0 10 -10 m-428 10 h10 m76 0 h10 m0 0 h10 m156 0 h10 m20 0 h10 m0 0 h96 m-126 0 h20 m106 0 h20 m-146 0 q10 0 10 10 m126 0 q0 -10 10 -10 m-136 10 v12 m126 0 v-12 m-126 12 q0 10 10 10 m106 0 q10 0 10 -10 m-116 10 h10 m66 0 h10 m0 0 h20 m-116 -10 v20 m126 0 v-20 m-126 20 v24 m126 0 v-24 m-126 24 q0 10 10 10 m106 0 q10 0 10 -10 m-116 10 h10 m86 0 h10 m60 -108 h10 m0 0 h120 m-150 0 h20 m130 0 h20 m-170 0 q10 0 10 10 m150 0 q0 -10 10 -10 m-160 10 v12 m150 0 v-12 m-150 12 q0 10 10 10 m130 0 q10 0 10 -10 m-140 10 h10 m110 0 h10 m-706 -42 v20 m736 0 v-20 m-736 20 v132 m736 0 v-132 m-736 132 q0 10 10 10 m716 0 q10 0 10 -10 m-726 10 h10 m60 0 h10 m0 0 h636 m-726 -10 v20 m736 0 v-20 m-736 20 v24 m736 0 v-24 m-736 24 q0 10 10 10 m716 0 q10 0 10 -10 m-726 10 h10 m48 0 h10 m0 0 h648 m-726 -10 v20 m736 0 v-20 m-736 20 v24 m736 0 v-24 m-736 24 q0 10 10 10 m716 0 q10 0 10 -10 m-726 10 h10 m50 0 h10 m0 0 h646 m-726 -10 v20 m736 0 v-20 m-736 20 v24 m736 0 v-24 m-736 24 q0 10 10 10 m716 0 q10 0 10 -10 m-726 10 h10 m92 0 h10 m0 0 h604 m-726 -10 v20 m736 0 v-20 m-736 20 v24 m736 0 v-24 m-736 24 q0 10 10 10 m716 0 q10 0 10 -10 m-726 10 h10 m66 0 h10 m0 0 h630 m-726 -10 v20 m736 0 v-20 m-736 20 v24 m736 0 v-24 m-736 24 q0 10 10 10 m716 0 q10 0 10 -10 m-726 10 h10 m62 0 h10 m0 0 h634 m-726 -10 v20 m736 0 v-20 m-736 20 v24 m736 0 v-24 m-736 24 q0 10 10 10 m716 0 q10 0 10 -10 m-726 10 h10 m76 0 h10 m0 0 h620 m-726 -10 v20 m736 0 v-20 m-736 20 v24 m736 0 v-24 m-736 24 q0 10 10 10 m716 0 q10 0 10 -10 m-726 10 h10 m138 0 h10 m0 0 h558 m23 -724 h-3" class="line"/><polygon points="785 17 793 13 793 21"/><polygon points="785 17 777 13 777 21"/></svg>