<svg xmlns="http://www.w3.org/2000/svg" width="1089" height="800"><defs><style type="text/css">@namespace &quot;http://www.w3.org/2000/svg&quot;;.line{fill:none;stroke:#636273}text.nonterminal,text.terminal{font-family:-apple-system,BlinkMacSystemFont,&quot;Segoe UI&quot;,Roboto,Ubuntu,Cantarell,Helvetica,sans-serif;font-size:12px}text.terminal{fill:#fff;font-weight:700}text.nonterminal{fill:#e289a4;font-weight:400}polygon,rect{fill:none;stroke:none}rect.terminal{fill:none;stroke:#be2f5b}rect.nonterminal{fill:rgba(255,255,255,.1);stroke:none}</style></defs><polygon points="9 17 1 13 1 21"/><polygon points="17 17 9 13 9 21"/><rect width="58" height="32" x="31" y="3" rx="10"/><rect width="58" height="32" x="29" y="1" class="terminal" rx="10"/><text x="39" y="21" class="terminal">COPY</text><a xmlns:xlink="http://www.w3.org/1999/xlink" xlink:href="#id" xlink:title="id"><rect width="30" height="32" x="129" y="3"/><rect width="30" height="32" x="127" y="1" class="nonterminal"/><text x="137" y="21" class="nonterminal">id</text></a><rect width="74" height="32" x="179" y="3" rx="10"/><rect width="74" height="32" x="177" y="1" class="terminal" rx="10"/><text x="187" y="21" class="terminal">CANCEL</text><a xmlns:xlink="http://www.w3.org/1999/xlink" xlink:href="#tableName" xlink:title="tableName"><rect width="88" height="32" x="129" y="47"/><rect width="88" height="32" x="127" y="45" class="nonterminal"/><text x="137" y="65" class="nonterminal">tableName</text></a><rect width="60" height="32" x="237" y="47" rx="10"/><rect width="60" height="32" x="235" y="45" class="terminal" rx="10"/><text x="245" y="65" class="terminal">FROM</text><a xmlns:xlink="http://www.w3.org/1999/xlink" xlink:href="#fileName" xlink:title="fileName"><rect width="74" height="32" x="317" y="47"/><rect width="74" height="32" x="315" y="45" class="nonterminal"/><text x="325" y="65" class="nonterminal">fileName</text></a><rect width="58" height="32" x="431" y="79" rx="10"/><rect width="58" height="32" x="429" y="77" class="terminal" rx="10"/><text x="439" y="97" class="terminal">WITH</text><rect width="74" height="32" x="529" y="111" rx="10"/><rect width="74" height="32" x="527" y="109" class="terminal" rx="10"/><text x="537" y="129" class="terminal">HEADER</text><a xmlns:xlink="http://www.w3.org/1999/xlink" xlink:href="#true" xlink:title="true"><rect width="46" height="32" x="643" y="111"/><rect width="46" height="32" x="641" y="109" class="nonterminal"/><text x="651" y="129" class="nonterminal">true</text></a><a xmlns:xlink="http://www.w3.org/1999/xlink" xlink:href="#false" xlink:title="false"><rect width="50" height="32" x="643" y="155"/><rect width="50" height="32" x="641" y="153" class="nonterminal"/><text x="651" y="173" class="nonterminal">false</text></a><rect width="100" height="32" x="529" y="199" rx="10"/><rect width="100" height="32" x="527" y="197" class="terminal" rx="10"/><text x="537" y="217" class="terminal">TIMESTAMP</text><a xmlns:xlink="http://www.w3.org/1999/xlink" xlink:href="#columnName" xlink:title="columnName"><rect width="102" height="32" x="649" y="199"/><rect width="102" height="32" x="647" y="197" class="nonterminal"/><text x="657" y="217" class="nonterminal">columnName</text></a><rect width="96" height="32" x="529" y="243" rx="10"/><rect width="96" height="32" x="527" y="241" class="terminal" rx="10"/><text x="537" y="261" class="terminal">DELIMITER</text><a xmlns:xlink="http://www.w3.org/1999/xlink" xlink:href="#delimiter" xlink:title="delimiter"><rect width="76" height="32" x="645" y="243"/><rect width="76" height="32" x="643" y="241" class="nonterminal"/><text x="653" y="261" class="nonterminal">delimiter</text></a><rect width="76" height="32" x="529" y="287" rx="10"/><rect width="76" height="32" x="527" y="285" class="terminal" rx="10"/><text x="537" y="305" class="terminal">FORMAT</text><a xmlns:xlink="http://www.w3.org/1999/xlink" xlink:href="#format" xlink:title="format"><rect width="62" height="32" x="625" y="287"/><rect width="62" height="32" x="623" y="285" class="nonterminal"/><text x="633" y="305" class="nonterminal">format</text></a><rect width="120" height="32" x="529" y="331" rx="10"/><rect width="120" height="32" x="527" y="329" class="terminal" rx="10"/><text x="537" y="349" class="terminal">PARTITION BY</text><rect width="58" height="32" x="689" y="331" rx="10"/><rect width="58" height="32" x="687" y="329" class="terminal" rx="10"/><text x="697" y="349" class="terminal">NONE</text><rect width="56" height="32" x="689" y="375" rx="10"/><rect width="56" height="32" x="687" y="373" class="terminal" rx="10"/><text x="697" y="393" class="terminal">YEAR</text><rect width="70" height="32" x="689" y="419" rx="10"/><rect width="70" height="32" x="687" y="417" class="terminal" rx="10"/><text x="697" y="437" class="terminal">MONTH</text><rect width="48" height="32" x="689" y="463" rx="10"/><rect width="48" height="32" x="687" y="461" class="terminal" rx="10"/><text x="697" y="481" class="terminal">DAY</text><rect width="60" height="32" x="689" y="507" rx="10"/><rect width="60" height="32" x="687" y="505" class="terminal" rx="10"/><text x="697" y="525" class="terminal">HOUR</text><rect width="92" height="32" x="529" y="551" rx="10"/><rect width="92" height="32" x="527" y="549" class="terminal" rx="10"/><text x="537" y="569" class="terminal">ON ERROR</text><rect width="96" height="32" x="661" y="551" rx="10"/><rect width="96" height="32" x="659" y="549" class="terminal" rx="10"/><text x="669" y="569" class="terminal">SKIP_ROW</text><rect width="122" height="32" x="661" y="595" rx="10"/><rect width="122" height="32" x="659" y="593" class="terminal" rx="10"/><text x="669" y="613" class="terminal">SKIP_COLUMN</text><rect width="66" height="32" x="661" y="639" rx="10"/><rect width="66" height="32" x="659" y="637" class="terminal" rx="10"/><text x="669" y="657" class="terminal">ABORT</text><path xmlns:svg="http://www.w3.org/2000/svg" d="m17 17 h2 m0 0 h10 m58 0 h10 m20 0 h10 m30 0 h10 m0 0 h10 m74 0 h10 m0 0 h590 m-754 0 h20 m734 0 h20 m-774 0 q10 0 10 10 m754 0 q0 -10 10 -10 m-764 10 v24 m754 0 v-24 m-754 24 q0 10 10 10 m734 0 q10 0 10 -10 m-744 10 h10 m88 0 h10 m0 0 h10 m60 0 h10 m0 0 h10 m74 0 h10 m20 0 h10 m0 0 h402 m-432 0 h20 m412 0 h20 m-452 0 q10 0 10 10 m432 0 q0 -10 10 -10 m-442 10 v12 m432 0 v-12 m-432 12 q0 10 10 10 m412 0 q10 0 10 -10 m-422 10 h10 m58 0 h10 m20 0 h10 m0 0 h284 m-314 0 h20 m294 0 h20 m-334 0 q10 0 10 10 m314 0 q0 -10 10 -10 m-324 10 v12 m314 0 v-12 m-314 12 q0 10 10 10 m294 0 q10 0 10 -10 m-304 10 h10 m74 0 h10 m20 0 h10 m46 0 h10 m0 0 h4 m-90 0 h20 m70 0 h20 m-110 0 q10 0 10 10 m90 0 q0 -10 10 -10 m-100 10 v24 m90 0 v-24 m-90 24 q0 10 10 10 m70 0 q10 0 10 -10 m-80 10 h10 m50 0 h10 m20 -44 h90 m-304 -10 v20 m314 0 v-20 m-314 20 v68 m314 0 v-68 m-314 68 q0 10 10 10 m294 0 q10 0 10 -10 m-304 10 h10 m100 0 h10 m0 0 h10 m102 0 h10 m0 0 h52 m-304 -10 v20 m314 0 v-20 m-314 20 v24 m314 0 v-24 m-314 24 q0 10 10 10 m294 0 q10 0 10 -10 m-304 10 h10 m96 0 h10 m0 0 h10 m76 0 h10 m0 0 h82 m-304 -10 v20 m314 0 v-20 m-314 20 v24 m314 0 v-24 m-314 24 q0 10 10 10 m294 0 q10 0 10 -10 m-304 10 h10 m76 0 h10 m0 0 h10 m62 0 h10 m0 0 h116 m-304 -10 v20 m314 0 v-20 m-314 20 v24 m314 0 v-24 m-314 24 q0 10 10 10 m294 0 q10 0 10 -10 m-304 10 h10 m120 0 h10 m20 0 h10 m58 0 h10 m0 0 h12 m-110 0 h20 m90 0 h20 m-130 0 q10 0 10 10 m110 0 q0 -10 10 -10 m-120 10 v24 m110 0 v-24 m-110 24 q0 10 10 10 m90 0 q10 0 10 -10 m-100 10 h10 m56 0 h10 m0 0 h14 m-100 -10 v20 m110 0 v-20 m-110 20 v24 m110 0 v-24 m-110 24 q0 10 10 10 m90 0 q10 0 10 -10 m-100 10 h10 m70 0 h10 m-100 -10 v20 m110 0 v-20 m-110 20 v24 m110 0 v-24 m-110 24 q0 10 10 10 m90 0 q10 0 10 -10 m-100 10 h10 m48 0 h10 m0 0 h22 m-100 -10 v20 m110 0 v-20 m-110 20 v24 m110 0 v-24 m-110 24 q0 10 10 10 m90 0 q10 0 10 -10 m-100 10 h10 m60 0 h10 m0 0 h10 m20 -176 h24 m-304 -10 v20 m314 0 v-20 m-314 20 v200 m314 0 v-200 m-314 200 q0 10 10 10 m294 0 q10 0 10 -10 m-304 10 h10 m92 0 h10 m20 0 h10 m96 0 h10 m0 0 h26 m-162 0 h20 m142 0 h20 m-182 0 q10 0 10 10 m162 0 q0 -10 10 -10 m-172 10 v24 m162 0 v-24 m-162 24 q0 10 10 10 m142 0 q10 0 10 -10 m-152 10 h10 m122 0 h10 m-152 -10 v20 m162 0 v-20 m-162 20 v24 m162 0 v-24 m-162 24 q0 10 10 10 m142 0 q10 0 10 -10 m-152 10 h10 m66 0 h10 m0 0 h56 m83 -636 h-3" class="line"/><polygon points="881 17 889 13 889 21"/><polygon points="881 17 873 13 873 21"/></svg>