<svg xmlns="http://www.w3.org/2000/svg" width="741" height="579"><defs><style type="text/css">@namespace &quot;http://www.w3.org/2000/svg&quot;;.line{fill:none;stroke:#636273}text.nonterminal,text.terminal{font-family:-apple-system,BlinkMacSystemFont,&quot;Segoe UI&quot;,Roboto,Ubuntu,Cantarell,Helvetica,sans-serif;font-size:12px}text.terminal{fill:#fff;font-weight:700}text.nonterminal{fill:#e289a4;font-weight:400}polygon,rect{fill:none;stroke:none}rect.terminal{fill:none;stroke:#be2f5b}rect.nonterminal{fill:rgba(255,255,255,.1);stroke:none}</style></defs><polygon points="9 17 1 13 1 21"/><polygon points="17 17 9 13 9 21"/><rect width="72" height="32" x="31" y="3" rx="10"/><rect width="72" height="32" x="29" y="1" class="terminal" rx="10"/><text x="39" y="21" class="terminal">CREATE</text><rect width="62" height="32" x="123" y="3" rx="10"/><rect width="62" height="32" x="121" y="1" class="terminal" rx="10"/><text x="131" y="21" class="terminal">TABLE</text><rect width="34" height="32" x="225" y="35" rx="10"/><rect width="34" height="32" x="223" y="33" class="terminal" rx="10"/><text x="233" y="53" class="terminal">IF</text><rect width="48" height="32" x="279" y="35" rx="10"/><rect width="48" height="32" x="277" y="33" class="terminal" rx="10"/><text x="287" y="53" class="terminal">NOT</text><rect width="70" height="32" x="347" y="35" rx="10"/><rect width="70" height="32" x="345" y="33" class="terminal" rx="10"/><text x="355" y="53" class="terminal">EXISTS</text><a xmlns:xlink="http://www.w3.org/1999/xlink" xlink:href="#tableName" xlink:title="tableName"><rect width="88" height="32" x="457" y="3"/><rect width="88" height="32" x="455" y="1" class="nonterminal"/><text x="465" y="21" class="nonterminal">tableName</text></a><rect width="26" height="32" x="45" y="145" rx="10"/><rect width="26" height="32" x="43" y="143" class="terminal" rx="10"/><text x="53" y="163" class="terminal">(</text><a xmlns:xlink="http://www.w3.org/1999/xlink" xlink:href="#columnName" xlink:title="columnName"><rect width="102" height="32" x="111" y="145"/><rect width="102" height="32" x="109" y="143" class="nonterminal"/><text x="119" y="163" class="nonterminal">columnName</text></a><a xmlns:xlink="http://www.w3.org/1999/xlink" xlink:href="#typeDef" xlink:title="typeDef"><rect width="70" height="32" x="233" y="145"/><rect width="70" height="32" x="231" y="143" class="nonterminal"/><text x="241" y="163" class="nonterminal">typeDef</text></a><rect width="24" height="32" x="111" y="101" rx="10"/><rect width="24" height="32" x="109" y="99" class="terminal" rx="10"/><text x="119" y="119" class="terminal">,</text><rect width="26" height="32" x="343" y="145" rx="10"/><rect width="26" height="32" x="341" y="143" class="terminal" rx="10"/><text x="351" y="163" class="terminal">)</text><rect width="34" height="32" x="45" y="211" rx="10"/><rect width="34" height="32" x="43" y="209" class="terminal" rx="10"/><text x="53" y="229" class="terminal">as</text><rect width="26" height="32" x="99" y="211" rx="10"/><rect width="26" height="32" x="97" y="209" class="terminal" rx="10"/><text x="107" y="229" class="terminal">(</text><a xmlns:xlink="http://www.w3.org/1999/xlink" xlink:href="#selectSql" xlink:title="selectSql"><rect width="76" height="32" x="145" y="211"/><rect width="76" height="32" x="143" y="209" class="nonterminal"/><text x="153" y="229" class="nonterminal">selectSql</text></a><rect width="26" height="32" x="241" y="211" rx="10"/><rect width="26" height="32" x="239" y="209" class="terminal" rx="10"/><text x="249" y="229" class="terminal">)</text><rect width="24" height="32" x="327" y="211" rx="10"/><rect width="24" height="32" x="325" y="209" class="terminal" rx="10"/><text x="335" y="229" class="terminal">,</text><a xmlns:xlink="http://www.w3.org/1999/xlink" xlink:href="#castDef" xlink:title="castDef"><rect width="68" height="32" x="371" y="211"/><rect width="68" height="32" x="369" y="209" class="nonterminal"/><text x="379" y="229" class="nonterminal">castDef</text></a><rect width="24" height="32" x="539" y="211" rx="10"/><rect width="24" height="32" x="537" y="209" class="terminal" rx="10"/><text x="547" y="229" class="terminal">,</text><a xmlns:xlink="http://www.w3.org/1999/xlink" xlink:href="#indexDef" xlink:title="indexDef"><rect width="76" height="32" x="583" y="211"/><rect width="76" height="32" x="581" y="209" class="nonterminal"/><text x="591" y="229" class="nonterminal">indexDef</text></a><rect width="92" height="32" x="57" y="313" rx="10"/><rect width="92" height="32" x="55" y="311" class="terminal" rx="10"/><text x="65" y="331" class="terminal">timestamp</text><rect width="26" height="32" x="169" y="313" rx="10"/><rect width="26" height="32" x="167" y="311" class="terminal" rx="10"/><text x="177" y="331" class="terminal">(</text><a xmlns:xlink="http://www.w3.org/1999/xlink" xlink:href="#columnRef" xlink:title="columnRef"><rect width="86" height="32" x="215" y="313"/><rect width="86" height="32" x="213" y="311" class="nonterminal"/><text x="223" y="331" class="nonterminal">columnRef</text></a><rect width="26" height="32" x="321" y="313" rx="10"/><rect width="26" height="32" x="319" y="311" class="terminal" rx="10"/><text x="329" y="331" class="terminal">)</text><rect width="98" height="32" x="387" y="345" rx="10"/><rect width="98" height="32" x="385" y="343" class="terminal" rx="10"/><text x="395" y="363" class="terminal">PARTITION</text><rect width="38" height="32" x="505" y="345" rx="10"/><rect width="38" height="32" x="503" y="343" class="terminal" rx="10"/><text x="513" y="363" class="terminal">BY</text><rect width="58" height="32" x="583" y="345" rx="10"/><rect width="58" height="32" x="581" y="343" class="terminal" rx="10"/><text x="591" y="363" class="terminal">NONE</text><rect width="56" height="32" x="583" y="389" rx="10"/><rect width="56" height="32" x="581" y="387" class="terminal" rx="10"/><text x="591" y="407" class="terminal">YEAR</text><rect width="70" height="32" x="583" y="433" rx="10"/><rect width="70" height="32" x="581" y="431" class="terminal" rx="10"/><text x="591" y="451" class="terminal">MONTH</text><rect width="48" height="32" x="583" y="477" rx="10"/><rect width="48" height="32" x="581" y="475" class="terminal" rx="10"/><text x="591" y="495" class="terminal">DAY</text><rect width="60" height="32" x="583" y="521" rx="10"/><rect width="60" height="32" x="581" y="519" class="terminal" rx="10"/><text x="591" y="539" class="terminal">HOUR</text><path xmlns:svg="http://www.w3.org/2000/svg" d="m17 17 h2 m0 0 h10 m72 0 h10 m0 0 h10 m62 0 h10 m20 0 h10 m0 0 h202 m-232 0 h20 m212 0 h20 m-252 0 q10 0 10 10 m232 0 q0 -10 10 -10 m-242 10 v12 m232 0 v-12 m-232 12 q0 10 10 10 m212 0 q10 0 10 -10 m-222 10 h10 m34 0 h10 m0 0 h10 m48 0 h10 m0 0 h10 m70 0 h10 m20 -32 h10 m88 0 h10 m2 0 l2 0 m2 0 l2 0 m2 0 l2 0 m-564 142 l2 0 m2 0 l2 0 m2 0 l2 0 m22 0 h10 m26 0 h10 m20 0 h10 m102 0 h10 m0 0 h10 m70 0 h10 m-232 0 l20 0 m-1 0 q-9 0 -9 -10 l0 -24 q0 -10 10 -10 m212 44 l20 0 m-20 0 q10 0 10 -10 l0 -24 q0 -10 -10 -10 m-212 0 h10 m24 0 h10 m0 0 h168 m20 44 h10 m26 0 h10 m0 0 h330 m-694 0 h20 m674 0 h20 m-714 0 q10 0 10 10 m694 0 q0 -10 10 -10 m-704 10 v46 m694 0 v-46 m-694 46 q0 10 10 10 m674 0 q10 0 10 -10 m-684 10 h10 m34 0 h10 m0 0 h10 m26 0 h10 m0 0 h10 m76 0 h10 m0 0 h10 m26 0 h10 m40 0 h10 m24 0 h10 m0 0 h10 m68 0 h10 m-152 0 l20 0 m-1 0 q-9 0 -9 -10 l0 -12 q0 -10 10 -10 m132 32 l20 0 m-20 0 q10 0 10 -10 l0 -12 q0 -10 -10 -10 m-132 0 h10 m0 0 h122 m-172 32 h20 m172 0 h20 m-212 0 q10 0 10 10 m192 0 q0 -10 10 -10 m-202 10 v14 m192 0 v-14 m-192 14 q0 10 10 10 m172 0 q10 0 10 -10 m-182 10 h10 m0 0 h162 m60 -34 h10 m24 0 h10 m0 0 h10 m76 0 h10 m-160 0 l20 0 m-1 0 q-9 0 -9 -10 l0 -12 q0 -10 10 -10 m140 32 l20 0 m-20 0 q10 0 10 -10 l0 -12 q0 -10 -10 -10 m-140 0 h10 m0 0 h130 m-180 32 h20 m180 0 h20 m-220 0 q10 0 10 10 m200 0 q0 -10 10 -10 m-210 10 v14 m200 0 v-14 m-200 14 q0 10 10 10 m180 0 q10 0 10 -10 m-190 10 h10 m0 0 h170 m42 -100 l2 0 m2 0 l2 0 m2 0 l2 0 m-726 136 l2 0 m2 0 l2 0 m2 0 l2 0 m22 0 h10 m0 0 h646 m-676 0 h20 m656 0 h20 m-696 0 q10 0 10 10 m676 0 q0 -10 10 -10 m-686 10 v12 m676 0 v-12 m-676 12 q0 10 10 10 m656 0 q10 0 10 -10 m-666 10 h10 m92 0 h10 m0 0 h10 m26 0 h10 m0 0 h10 m86 0 h10 m0 0 h10 m26 0 h10 m20 0 h10 m0 0 h296 m-326 0 h20 m306 0 h20 m-346 0 q10 0 10 10 m326 0 q0 -10 10 -10 m-336 10 v12 m326 0 v-12 m-326 12 q0 10 10 10 m306 0 q10 0 10 -10 m-316 10 h10 m98 0 h10 m0 0 h10 m38 0 h10 m20 0 h10 m58 0 h10 m0 0 h12 m-110 0 h20 m90 0 h20 m-130 0 q10 0 10 10 m110 0 q0 -10 10 -10 m-120 10 v24 m110 0 v-24 m-110 24 q0 10 10 10 m90 0 q10 0 10 -10 m-100 10 h10 m56 0 h10 m0 0 h14 m-100 -10 v20 m110 0 v-20 m-110 20 v24 m110 0 v-24 m-110 24 q0 10 10 10 m90 0 q10 0 10 -10 m-100 10 h10 m70 0 h10 m-100 -10 v20 m110 0 v-20 m-110 20 v24 m110 0 v-24 m-110 24 q0 10 10 10 m90 0 q10 0 10 -10 m-100 10 h10 m48 0 h10 m0 0 h22 m-100 -10 v20 m110 0 v-20 m-110 20 v24 m110 0 v-24 m-110 24 q0 10 10 10 m90 0 q10 0 10 -10 m-100 10 h10 m60 0 h10 m0 0 h10 m63 -240 h-3" class="line"/><polygon points="731 295 739 291 739 299"/><polygon points="731 295 723 291 723 299"/></svg>