<svg xmlns="http://www.w3.org/2000/svg" width="585" height="81"><defs><style type="text/css">@namespace &quot;http://www.w3.org/2000/svg&quot;;.line{fill:none;stroke:#636273}text.nonterminal,text.terminal{font-family:-apple-system,BlinkMacSystemFont,&quot;Segoe UI&quot;,Roboto,Ubuntu,Cantarell,Helvetica,sans-serif;font-size:12px}text.terminal{fill:#fff;font-weight:700}text.nonterminal{fill:#e289a4;font-weight:400}polygon,rect{fill:none;stroke:none}rect.terminal{fill:none;stroke:#be2f5b}rect.nonterminal{fill:rgba(255,255,255,.1);stroke:none}</style></defs><polygon points="9 61 1 57 1 65"/><polygon points="17 61 9 57 9 65"/><rect width="70" height="32" x="31" y="47" rx="10"/><rect width="70" height="32" x="29" y="45" class="terminal" rx="10"/><text x="39" y="65" class="terminal">SELECT</text><rect width="86" height="32" x="121" y="47" rx="10"/><rect width="86" height="32" x="119" y="45" class="terminal" rx="10"/><text x="129" y="65" class="terminal">DISTINCT</text><a xmlns:xlink="http://www.w3.org/1999/xlink" xlink:href="#columnName" xlink:title="columnName"><rect width="102" height="32" x="247" y="47"/><rect width="102" height="32" x="245" y="45" class="nonterminal"/><text x="255" y="65" class="nonterminal">columnName</text></a><rect width="24" height="32" x="247" y="3" rx="10"/><rect width="24" height="32" x="245" y="1" class="terminal" rx="10"/><text x="255" y="21" class="terminal">,</text><rect width="60" height="32" x="389" y="47" rx="10"/><rect width="60" height="32" x="387" y="45" class="terminal" rx="10"/><text x="397" y="65" class="terminal">FROM</text><a xmlns:xlink="http://www.w3.org/1999/xlink" xlink:href="#tableName" xlink:title="tableName"><rect width="88" height="32" x="469" y="47"/><rect width="88" height="32" x="467" y="45" class="nonterminal"/><text x="477" y="65" class="nonterminal">tableName</text></a><path xmlns:svg="http://www.w3.org/2000/svg" d="m17 61 h2 m0 0 h10 m70 0 h10 m0 0 h10 m86 0 h10 m20 0 h10 m102 0 h10 m-142 0 l20 0 m-1 0 q-9 0 -9 -10 l0 -24 q0 -10 10 -10 m122 44 l20 0 m-20 0 q10 0 10 -10 l0 -24 q0 -10 -10 -10 m-122 0 h10 m24 0 h10 m0 0 h78 m20 44 h10 m60 0 h10 m0 0 h10 m88 0 h10 m3 0 h-3" class="line"/><polygon points="575 61 583 57 583 65"/><polygon points="575 61 567 57 567 65"/></svg>