<svg xmlns="http://www.w3.org/2000/svg" width="961" height="289"><defs><style type="text/css">@namespace &quot;http://www.w3.org/2000/svg&quot;;.line{fill:none;stroke:#636273}text.nonterminal,text.terminal{font-family:-apple-system,BlinkMacSystemFont,&quot;Segoe UI&quot;,Roboto,Ubuntu,Cantarell,Helvetica,sans-serif;font-size:12px}text.terminal{fill:#fff;font-weight:700}text.nonterminal{fill:#e289a4;font-weight:400}polygon,rect{fill:none;stroke:none}rect.terminal{fill:none;stroke:#be2f5b}rect.nonterminal{fill:rgba(255,255,255,.1);stroke:none}</style></defs><polygon points="9 33 1 29 1 37"/><polygon points="17 33 9 29 9 37"/><a xmlns:xlink="http://www.w3.org/1999/xlink" xlink:href="#someSampleBySelectQuery" xlink:title="someSampleBySelectQuery"><rect width="192" height="32" x="31" y="19"/><rect width="192" height="32" x="29" y="17" class="nonterminal"/><text x="39" y="37" class="nonterminal">someSampleBySelectQuery</text></a><rect width="50" height="32" x="243" y="19" rx="10"/><rect width="50" height="32" x="241" y="17" class="terminal" rx="10"/><text x="251" y="37" class="terminal">FILL</text><rect width="58" height="32" x="373" y="19" rx="10"/><rect width="58" height="32" x="371" y="17" class="terminal" rx="10"/><text x="381" y="37" class="terminal">NONE</text><rect width="56" height="32" x="373" y="63" rx="10"/><rect width="56" height="32" x="371" y="61" class="terminal" rx="10"/><text x="381" y="81" class="terminal">NULL</text><rect width="56" height="32" x="373" y="107" rx="10"/><rect width="56" height="32" x="371" y="105" class="terminal" rx="10"/><text x="381" y="125" class="terminal">PREV</text><rect width="72" height="32" x="373" y="151" rx="10"/><rect width="72" height="32" x="371" y="149" class="terminal" rx="10"/><text x="381" y="169" class="terminal">LINEAR</text><rect width="28" height="32" x="373" y="195" rx="10"/><rect width="28" height="32" x="371" y="193" class="terminal" rx="10"/><text x="381" y="213" class="terminal">x</text><rect width="24" height="32" x="485" y="19" rx="10"/><rect width="24" height="32" x="483" y="17" class="terminal" rx="10"/><text x="493" y="37" class="terminal">,</text><path xmlns:svg="http://www.w3.org/2000/svg" d="m17 33 h2 m0 0 h10 m192 0 h10 m0 0 h10 m50 0 h10 m60 0 h10 m58 0 h10 m0 0 h14 m-112 0 h20 m92 0 h20 m-132 0 q10 0 10 10 m112 0 q0 -10 10 -10 m-122 10 v24 m112 0 v-24 m-112 24 q0 10 10 10 m92 0 q10 0 10 -10 m-102 10 h10 m56 0 h10 m0 0 h16 m-102 -10 v20 m112 0 v-20 m-112 20 v24 m112 0 v-24 m-112 24 q0 10 10 10 m92 0 q10 0 10 -10 m-102 10 h10 m56 0 h10 m0 0 h16 m-102 -10 v20 m112 0 v-20 m-112 20 v24 m112 0 v-24 m-112 24 q0 10 10 10 m92 0 q10 0 10 -10 m-102 10 h10 m72 0 h10 m-102 -10 v20 m112 0 v-20 m-112 20 v24 m112 0 v-24 m-112 24 q0 10 10 10 m92 0 q10 0 10 -10 m-102 10 h10 m28 0 h10 m0 0 h44 m20 -176 h10 m24 0 h10 m-196 0 l20 0 m-1 0 q-9 0 -9 -10 l0 -12 q0 -10 10 -10 m176 32 l20 0 m-20 0 q10 0 10 -10 l0 -12 q0 -10 -10 -10 m-176 0 h10 m0 0 h166 m-216 32 h20 m216 0 h20 m-256 0 q10 0 10 10 m236 0 q0 -10 10 -10 m-246 10 v190 m236 0 v-190 m-236 190 q0 10 10 10 m216 0 q10 0 10 -10 m-226 10 h10 m0 0 h206 m23 -210 h-3" class="line"/><polygon points="567 33 575 29 575 37"/><polygon points="567 33 559 29 559 37"/></svg>