<svg xmlns="http://www.w3.org/2000/svg" width="883" height="97"><defs><style type="text/css">@namespace &quot;http://www.w3.org/2000/svg&quot;;.line{fill:none;stroke:#636273}text.nonterminal,text.terminal{font-family:-apple-system,BlinkMacSystemFont,&quot;Segoe UI&quot;,Roboto,Ubuntu,Cantarell,Helvetica,sans-serif;font-size:12px}text.terminal{fill:#fff;font-weight:700}text.nonterminal{fill:#e289a4;font-weight:400}polygon,rect{fill:none;stroke:none}rect.terminal{fill:none;stroke:#be2f5b}rect.nonterminal{fill:rgba(255,255,255,.1);stroke:none}</style></defs><polygon points="9 61 1 57 1 65"/><polygon points="17 61 9 57 9 65"/><rect width="70" height="32" x="31" y="47" rx="10"/><rect width="70" height="32" x="29" y="45" class="terminal" rx="10"/><text x="39" y="65" class="terminal">SELECT</text><a xmlns:xlink="http://www.w3.org/1999/xlink" xlink:href="#column" xlink:title="column"><rect width="64" height="32" x="141" y="47"/><rect width="64" height="32" x="139" y="45" class="nonterminal"/><text x="149" y="65" class="nonterminal">column</text></a><rect width="24" height="32" x="141" y="3" rx="10"/><rect width="24" height="32" x="139" y="1" class="terminal" rx="10"/><text x="149" y="21" class="terminal">,</text><rect width="28" height="32" x="245" y="47" rx="10"/><rect width="28" height="32" x="243" y="45" class="terminal" rx="10"/><text x="253" y="65" class="terminal">,</text><a xmlns:xlink="http://www.w3.org/1999/xlink" xlink:href="#aggregation" xlink:title="aggregation"><rect width="96" height="32" x="313" y="47"/><rect width="96" height="32" x="311" y="45" class="nonterminal"/><text x="321" y="65" class="nonterminal">aggregation</text></a><rect width="24" height="32" x="313" y="3" rx="10"/><rect width="24" height="32" x="311" y="1" class="terminal" rx="10"/><text x="321" y="21" class="terminal">,</text><rect width="60" height="32" x="449" y="47" rx="10"/><rect width="60" height="32" x="447" y="45" class="terminal" rx="10"/><text x="457" y="65" class="terminal">FROM</text><a xmlns:xlink="http://www.w3.org/1999/xlink" xlink:href="#table" xlink:title="table"><rect width="52" height="32" x="529" y="47"/><rect width="52" height="32" x="527" y="45" class="nonterminal"/><text x="537" y="65" class="nonterminal">table</text></a><rect width="90" height="32" x="621" y="47" rx="10"/><rect width="90" height="32" x="619" y="45" class="terminal" rx="10"/><text x="629" y="65" class="terminal">GROUP BY</text><a xmlns:xlink="http://www.w3.org/1999/xlink" xlink:href="#column" xlink:title="column"><rect width="64" height="32" x="751" y="47"/><rect width="64" height="32" x="749" y="45" class="nonterminal"/><text x="759" y="65" class="nonterminal">column</text></a><rect width="24" height="32" x="751" y="3" rx="10"/><rect width="24" height="32" x="749" y="1" class="terminal" rx="10"/><text x="759" y="21" class="terminal">,</text><path xmlns:svg="http://www.w3.org/2000/svg" d="m17 61 h2 m0 0 h10 m70 0 h10 m20 0 h10 m64 0 h10 m-104 0 l20 0 m-1 0 q-9 0 -9 -10 l0 -24 q0 -10 10 -10 m84 44 l20 0 m-20 0 q10 0 10 -10 l0 -24 q0 -10 -10 -10 m-84 0 h10 m24 0 h10 m0 0 h40 m20 44 h10 m28 0 h10 m20 0 h10 m96 0 h10 m-136 0 l20 0 m-1 0 q-9 0 -9 -10 l0 -24 q0 -10 10 -10 m116 44 l20 0 m-20 0 q10 0 10 -10 l0 -24 q0 -10 -10 -10 m-116 0 h10 m24 0 h10 m0 0 h72 m20 44 h10 m60 0 h10 m0 0 h10 m52 0 h10 m20 0 h10 m90 0 h10 m20 0 h10 m64 0 h10 m-104 0 l20 0 m-1 0 q-9 0 -9 -10 l0 -24 q0 -10 10 -10 m84 44 l20 0 m-20 0 q10 0 10 -10 l0 -24 q0 -10 -10 -10 m-84 0 h10 m24 0 h10 m0 0 h40 m-234 44 h20 m234 0 h20 m-274 0 q10 0 10 10 m254 0 q0 -10 10 -10 m-264 10 v14 m254 0 v-14 m-254 14 q0 10 10 10 m234 0 q10 0 10 -10 m-244 10 h10 m0 0 h224 m23 -34 h-3" class="line"/><polygon points="873 61 881 57 881 65"/><polygon points="873 61 865 57 865 65"/></svg>