<svg xmlns="http://www.w3.org/2000/svg" width="269" height="37"><defs><style type="text/css">@namespace &quot;http://www.w3.org/2000/svg&quot;;.line{fill:none;stroke:#636273}text.nonterminal,text.terminal{font-family:-apple-system,BlinkMacSystemFont,&quot;Segoe UI&quot;,Roboto,Ubuntu,Cantarell,Helvetica,sans-serif;font-size:12px}text.terminal{fill:#fff;font-weight:700}text.nonterminal{fill:#e289a4;font-weight:400}polygon,rect{fill:none;stroke:none}rect.terminal{fill:none;stroke:#be2f5b}rect.nonterminal{fill:rgba(255,255,255,.1);stroke:none}</style></defs><polygon points="9 17 1 13 1 21"/><polygon points="17 17 9 13 9 21"/><rect width="76" height="32" x="31" y="3" rx="10"/><rect width="76" height="32" x="29" y="1" class="terminal" rx="10"/><text x="39" y="21" class="terminal">CAPACITY</text><a xmlns:xlink="http://www.w3.org/1999/xlink" xlink:href="#valueBlockSize" xlink:title="valueBlockSize"><rect width="114" height="32" x="127" y="3"/><rect width="114" height="32" x="125" y="1" class="nonterminal"/><text x="135" y="21" class="nonterminal">valueBlockSize</text></a><path xmlns:svg="http://www.w3.org/2000/svg" d="m17 17 h2 m0 0 h10 m76 0 h10 m0 0 h10 m114 0 h10 m3 0 h-3" class="line"/><polygon points="259 17 267 13 267 21"/><polygon points="259 17 251 13 251 21"/></svg>