<svg xmlns="http://www.w3.org/2000/svg" width="503" height="69"><defs><style type="text/css">@namespace &quot;http://www.w3.org/2000/svg&quot;;.line{fill:none;stroke:#636273}text.nonterminal,text.terminal{font-family:-apple-system,BlinkMacSystemFont,&quot;Segoe UI&quot;,Roboto,Ubuntu,Cantarell,Helvetica,sans-serif;font-size:12px}text.terminal{fill:#fff;font-weight:700}text.nonterminal{fill:#e289a4;font-weight:400}polygon,rect{fill:none;stroke:none}rect.terminal{fill:none;stroke:#be2f5b}rect.nonterminal{fill:rgba(255,255,255,.1);stroke:none}</style></defs><polygon points="9 17 1 13 1 21"/><polygon points="17 17 9 13 9 21"/><rect width="56" height="32" x="31" y="3" rx="10"/><rect width="56" height="32" x="29" y="1" class="terminal" rx="10"/><text x="39" y="21" class="terminal">INDEX</text><rect width="26" height="32" x="107" y="3" rx="10"/><rect width="26" height="32" x="105" y="1" class="terminal" rx="10"/><text x="115" y="21" class="terminal">(</text><a xmlns:xlink="http://www.w3.org/1999/xlink" xlink:href="#columnRef" xlink:title="columnRef"><rect width="86" height="32" x="153" y="3"/><rect width="86" height="32" x="151" y="1" class="nonterminal"/><text x="161" y="21" class="nonterminal">columnRef</text></a><a xmlns:xlink="http://www.w3.org/1999/xlink" xlink:href="#indexCapacityDef" xlink:title="indexCapacityDef"><rect width="130" height="32" x="279" y="35"/><rect width="130" height="32" x="277" y="33" class="nonterminal"/><text x="287" y="53" class="nonterminal">indexCapacityDef</text></a><rect width="26" height="32" x="449" y="3" rx="10"/><rect width="26" height="32" x="447" y="1" class="terminal" rx="10"/><text x="457" y="21" class="terminal">)</text><path xmlns:svg="http://www.w3.org/2000/svg" d="m17 17 h2 m0 0 h10 m56 0 h10 m0 0 h10 m26 0 h10 m0 0 h10 m86 0 h10 m20 0 h10 m0 0 h140 m-170 0 h20 m150 0 h20 m-190 0 q10 0 10 10 m170 0 q0 -10 10 -10 m-180 10 v12 m170 0 v-12 m-170 12 q0 10 10 10 m150 0 q10 0 10 -10 m-160 10 h10 m130 0 h10 m20 -32 h10 m26 0 h10 m3 0 h-3" class="line"/><polygon points="493 17 501 13 501 21"/><polygon points="493 17 485 13 485 21"/></svg>