<svg xmlns="http://www.w3.org/2000/svg" width="923" height="257"><defs><style type="text/css">@namespace &quot;http://www.w3.org/2000/svg&quot;;.line{fill:none;stroke:#636273}text.nonterminal,text.terminal{font-family:-apple-system,BlinkMacSystemFont,&quot;Segoe UI&quot;,Roboto,Ubuntu,Cantarell,Helvetica,sans-serif;font-size:12px}text.terminal{fill:#fff;font-weight:700}text.nonterminal{fill:#e289a4;font-weight:400}polygon,rect{fill:none;stroke:none}rect.terminal{fill:none;stroke:#be2f5b}rect.nonterminal{fill:rgba(255,255,255,.1);stroke:none}</style></defs><polygon points="9 17 1 13 1 21"/><polygon points="17 17 9 13 9 21"/><a xmlns:xlink="http://www.w3.org/1999/xlink" xlink:href="#user_1" xlink:title="user_1"><rect width="64" height="32" x="51" y="3"/><rect width="64" height="32" x="49" y="1" class="nonterminal"/><text x="59" y="21" class="nonterminal">user_1</text></a><a xmlns:xlink="http://www.w3.org/1999/xlink" xlink:href="#user_2" xlink:title="user_2"><rect width="64" height="32" x="51" y="47"/><rect width="64" height="32" x="49" y="45" class="nonterminal"/><text x="59" y="65" class="nonterminal">user_2</text></a><rect width="32" height="32" x="51" y="91" rx="10"/><rect width="32" height="32" x="49" y="89" class="terminal" rx="10"/><text x="59" y="109" class="terminal">...</text><rect width="108" height="32" x="155" y="3" rx="10"/><rect width="108" height="32" x="153" y="1" class="terminal" rx="10"/><text x="163" y="21" class="terminal">TCP requests</text><a xmlns:xlink="http://www.w3.org/1999/xlink" xlink:href="#network_IO_thread" xlink:title="network_IO_thread"><rect width="144" height="32" x="283" y="3"/><rect width="144" height="32" x="281" y="1" class="nonterminal"/><text x="291" y="21" class="nonterminal">network_IO_thread</text></a><rect width="106" height="32" x="447" y="3" rx="10"/><rect width="106" height="32" x="445" y="1" class="terminal" rx="10"/><text x="455" y="21" class="terminal">write_queue</text><a xmlns:xlink="http://www.w3.org/1999/xlink" xlink:href="#worker_1" xlink:title="worker_1"><rect width="78" height="32" x="593" y="3"/><rect width="78" height="32" x="591" y="1" class="nonterminal"/><text x="601" y="21" class="nonterminal">worker_1</text></a><rect width="56" height="32" x="691" y="3" rx="10"/><rect width="56" height="32" x="689" y="1" class="terminal" rx="10"/><text x="699" y="21" class="terminal">write</text><a xmlns:xlink="http://www.w3.org/1999/xlink" xlink:href="#table_1" xlink:title="table_1"><rect width="68" height="32" x="787" y="3"/><rect width="68" height="32" x="785" y="1" class="nonterminal"/><text x="795" y="21" class="nonterminal">table_1</text></a><a xmlns:xlink="http://www.w3.org/1999/xlink" xlink:href="#table_2" xlink:title="table_2"><rect width="68" height="32" x="787" y="47"/><rect width="68" height="32" x="785" y="45" class="nonterminal"/><text x="795" y="65" class="nonterminal">table_2</text></a><rect width="32" height="32" x="787" y="91" rx="10"/><rect width="32" height="32" x="785" y="89" class="terminal" rx="10"/><text x="795" y="109" class="terminal">...</text><a xmlns:xlink="http://www.w3.org/1999/xlink" xlink:href="#worker_2" xlink:title="worker_2"><rect width="78" height="32" x="593" y="135"/><rect width="78" height="32" x="591" y="133" class="nonterminal"/><text x="601" y="153" class="nonterminal">worker_2</text></a><rect width="56" height="32" x="691" y="135" rx="10"/><rect width="56" height="32" x="689" y="133" class="terminal" rx="10"/><text x="699" y="153" class="terminal">write</text><a xmlns:xlink="http://www.w3.org/1999/xlink" xlink:href="#table_3" xlink:title="table_3"><rect width="68" height="32" x="787" y="135"/><rect width="68" height="32" x="785" y="133" class="nonterminal"/><text x="795" y="153" class="nonterminal">table_3</text></a><a xmlns:xlink="http://www.w3.org/1999/xlink" xlink:href="#table_4" xlink:title="table_4"><rect width="68" height="32" x="787" y="179"/><rect width="68" height="32" x="785" y="177" class="nonterminal"/><text x="795" y="197" class="nonterminal">table_4</text></a><rect width="32" height="32" x="787" y="223" rx="10"/><rect width="32" height="32" x="785" y="221" class="terminal" rx="10"/><text x="795" y="241" class="terminal">...</text><path xmlns:svg="http://www.w3.org/2000/svg" d="m17 17 h2 m20 0 h10 m64 0 h10 m-104 0 h20 m84 0 h20 m-124 0 q10 0 10 10 m104 0 q0 -10 10 -10 m-114 10 v24 m104 0 v-24 m-104 24 q0 10 10 10 m84 0 q10 0 10 -10 m-94 10 h10 m64 0 h10 m-94 -10 v20 m104 0 v-20 m-104 20 v24 m104 0 v-24 m-104 24 q0 10 10 10 m84 0 q10 0 10 -10 m-94 10 h10 m32 0 h10 m0 0 h32 m20 -88 h10 m108 0 h10 m0 0 h10 m144 0 h10 m0 0 h10 m106 0 h10 m20 0 h10 m78 0 h10 m0 0 h10 m56 0 h10 m20 0 h10 m68 0 h10 m-108 0 h20 m88 0 h20 m-128 0 q10 0 10 10 m108 0 q0 -10 10 -10 m-118 10 v24 m108 0 v-24 m-108 24 q0 10 10 10 m88 0 q10 0 10 -10 m-98 10 h10 m68 0 h10 m-98 -10 v20 m108 0 v-20 m-108 20 v24 m108 0 v-24 m-108 24 q0 10 10 10 m88 0 q10 0 10 -10 m-98 10 h10 m32 0 h10 m0 0 h36 m-302 -88 h20 m302 0 h20 m-342 0 q10 0 10 10 m322 0 q0 -10 10 -10 m-332 10 v112 m322 0 v-112 m-322 112 q0 10 10 10 m302 0 q10 0 10 -10 m-312 10 h10 m78 0 h10 m0 0 h10 m56 0 h10 m20 0 h10 m68 0 h10 m-108 0 h20 m88 0 h20 m-128 0 q10 0 10 10 m108 0 q0 -10 10 -10 m-118 10 v24 m108 0 v-24 m-108 24 q0 10 10 10 m88 0 q10 0 10 -10 m-98 10 h10 m68 0 h10 m-98 -10 v20 m108 0 v-20 m-108 20 v24 m108 0 v-24 m-108 24 q0 10 10 10 m88 0 q10 0 10 -10 m-98 10 h10 m32 0 h10 m0 0 h36 m43 -220 h-3" class="line"/><polygon points="913 17 921 13 921 21"/><polygon points="913 17 905 13 905 21"/></svg>