<svg xmlns="http://www.w3.org/2000/svg" width="831" height="157"><defs><style type="text/css">@namespace &quot;http://www.w3.org/2000/svg&quot;;.line{fill:none;stroke:#636273}text.nonterminal,text.terminal{font-family:-apple-system,BlinkMacSystemFont,&quot;Segoe UI&quot;,Roboto,Ubuntu,Cantarell,Helvetica,sans-serif;font-size:12px}text.terminal{fill:#fff;font-weight:700}text.nonterminal{fill:#e289a4;font-weight:400}polygon,rect{fill:none;stroke:none}rect.terminal{fill:none;stroke:#be2f5b}rect.nonterminal{fill:rgba(255,255,255,.1);stroke:none}</style></defs><polygon points="9 105 1 101 1 109"/><polygon points="17 105 9 101 9 109"/><a xmlns:xlink="http://www.w3.org/1999/xlink" xlink:href="#Launch_Load_Balancing_Job" xlink:title="Launch_Load_Balancing_Job"><rect width="202" height="32" x="51" y="91"/><rect width="202" height="32" x="49" y="89" class="nonterminal"/><text x="59" y="109" class="nonterminal">Launch_Load_Balancing_Job</text></a><rect width="34" height="32" x="293" y="123" rx="10"/><rect width="34" height="32" x="291" y="121" class="terminal" rx="10"/><text x="301" y="141" class="terminal">IF</text><a xmlns:xlink="http://www.w3.org/1999/xlink" xlink:href="#load_ratio" xlink:title="load_ratio"><rect width="84" height="32" x="347" y="123"/><rect width="84" height="32" x="345" y="121" class="nonterminal"/><text x="355" y="141" class="nonterminal">load_ratio</text></a><rect width="30" height="32" x="451" y="123" rx="10"/><rect width="30" height="32" x="449" y="121" class="terminal" rx="10"/><text x="459" y="141" class="terminal">&gt;</text><rect width="118" height="32" x="501" y="123" rx="10"/><rect width="118" height="32" x="499" y="121" class="terminal" rx="10"/><text x="509" y="141" class="terminal">max.load.ratio</text><a xmlns:xlink="http://www.w3.org/1999/xlink" xlink:href="#Rebalance_Load" xlink:title="Rebalance_Load"><rect width="124" height="32" x="639" y="123"/><rect width="124" height="32" x="637" y="121" class="nonterminal"/><text x="647" y="141" class="nonterminal">Rebalance_Load</text></a><rect width="202" height="32" x="71" y="3" rx="10"/><rect width="202" height="32" x="69" y="1" class="terminal" rx="10"/><text x="79" y="21" class="terminal">n.updates.per.load.balance</text><rect width="30" height="32" x="293" y="3" rx="10"/><rect width="30" height="32" x="291" y="1" class="terminal" rx="10"/><text x="301" y="21" class="terminal">&lt;</text><a xmlns:xlink="http://www.w3.org/1999/xlink" xlink:href="#updates_since_last_rebalance" xlink:title="updates_since_last_rebalance"><rect width="214" height="32" x="343" y="3"/><rect width="214" height="32" x="341" y="1" class="nonterminal"/><text x="351" y="21" class="nonterminal">updates_since_last_rebalance</text></a><rect width="246" height="32" x="71" y="47" rx="10"/><rect width="246" height="32" x="69" y="45" class="terminal" rx="10"/><text x="79" y="65" class="terminal">maintenance.job.interval</text><rect width="30" height="32" x="337" y="47" rx="10"/><rect width="30" height="32" x="335" y="45" class="terminal" rx="10"/><text x="345" y="65" class="terminal">&lt;</text><a xmlns:xlink="http://www.w3.org/1999/xlink" xlink:href="#time_since_last_rebalance" xlink:title="time_since_last_rebalance"><rect width="190" height="32" x="387" y="47"/><rect width="190" height="32" x="385" y="45" class="nonterminal"/><text x="395" y="65" class="nonterminal">time_since_last_rebalance</text></a><rect width="34" height="32" x="617" y="3" rx="10"/><rect width="34" height="32" x="615" y="1" class="terminal" rx="10"/><text x="625" y="21" class="terminal">IF</text><path xmlns:svg="http://www.w3.org/2000/svg" d="m17 105 h2 m20 0 h10 m202 0 h10 m20 0 h10 m0 0 h480 m-510 0 h20 m490 0 h20 m-530 0 q10 0 10 10 m510 0 q0 -10 10 -10 m-520 10 v12 m510 0 v-12 m-510 12 q0 10 10 10 m490 0 q10 0 10 -10 m-500 10 h10 m34 0 h10 m0 0 h10 m84 0 h10 m0 0 h10 m30 0 h10 m0 0 h10 m118 0 h10 m0 0 h10 m124 0 h10 m-752 -32 l20 0 m-1 0 q-9 0 -9 -10 l0 -68 q0 -10 10 -10 m752 88 l20 0 m-20 0 q10 0 10 -10 l0 -68 q0 -10 -10 -10 m-732 0 h10 m202 0 h10 m0 0 h10 m30 0 h10 m0 0 h10 m214 0 h10 m0 0 h20 m-546 0 h20 m526 0 h20 m-566 0 q10 0 10 10 m546 0 q0 -10 10 -10 m-556 10 v24 m546 0 v-24 m-546 24 q0 10 10 10 m526 0 q10 0 10 -10 m-536 10 h10 m246 0 h10 m0 0 h10 m30 0 h10 m0 0 h10 m190 0 h10 m20 -44 h10 m34 0 h10 m0 0 h132 m23 88 h-3" class="line"/><polygon points="821 105 829 101 829 109"/><polygon points="821 105 813 101 813 109"/></svg>