<svg xmlns="http://www.w3.org/2000/svg" width="980" height="475"><defs><style type="text/css">@namespace &quot;http://www.w3.org/2000/svg&quot;;.line{fill:none;stroke:#636273}text.nonterminal,text.terminal{font-family:-apple-system,BlinkMacSystemFont,&quot;Segoe UI&quot;,Roboto,Ubuntu,Cantarell,Helvetica,sans-serif;font-size:12px}text.terminal{fill:#fff;font-weight:700}text.nonterminal{fill:#e289a4;font-weight:400}polygon,rect{fill:none;stroke:none}rect.terminal{fill:none;stroke:#be2f5b}rect.nonterminal{fill:rgba(255,255,255,.1);stroke:none}</style></defs><polygon points="9 17 1 13 1 21"/><polygon points="17 17 9 13 9 21"/><rect width="70" height="32" x="31" y="3" rx="10"/><rect width="70" height="32" x="29" y="1" class="terminal" rx="10"/><text x="39" y="21" class="terminal">INSERT</text><rect width="56" height="32" x="141" y="35" rx="10"/><rect width="56" height="32" x="139" y="33" class="terminal" rx="10"/><text x="149" y="53" class="terminal">batch</text><a xmlns:xlink="http://www.w3.org/1999/xlink" xlink:href="#batchCount" xlink:title="batchCount"><rect width="92" height="32" x="217" y="35"/><rect width="92" height="32" x="215" y="33" class="nonterminal"/><text x="225" y="53" class="nonterminal">batchCount</text></a><rect width="94" height="32" x="329" y="35" rx="10"/><rect width="94" height="32" x="327" y="33" class="terminal" rx="10"/><text x="337" y="53" class="terminal">commitLag</text><a xmlns:xlink="http://www.w3.org/1999/xlink" xlink:href="#n" xlink:title="n"><rect width="28" height="32" x="443" y="35"/><rect width="28" height="32" x="441" y="33" class="nonterminal"/><text x="451" y="53" class="nonterminal">n</text></a><rect width="36" height="32" x="511" y="35" rx="10"/><rect width="36" height="32" x="509" y="33" class="terminal" rx="10"/><text x="519" y="53" class="terminal">us</text><rect width="26" height="32" x="511" y="79" rx="10"/><rect width="26" height="32" x="509" y="77" class="terminal" rx="10"/><text x="519" y="97" class="terminal">s</text><rect width="32" height="32" x="511" y="123" rx="10"/><rect width="32" height="32" x="509" y="121" class="terminal" rx="10"/><text x="519" y="141" class="terminal">m</text><rect width="28" height="32" x="511" y="167" rx="10"/><rect width="28" height="32" x="509" y="165" class="terminal" rx="10"/><text x="519" y="185" class="terminal">h</text><rect width="28" height="32" x="511" y="211" rx="10"/><rect width="28" height="32" x="509" y="209" class="terminal" rx="10"/><text x="519" y="229" class="terminal">d</text><rect width="56" height="32" x="607" y="3" rx="10"/><rect width="56" height="32" x="605" y="1" class="terminal" rx="10"/><text x="615" y="21" class="terminal">INTO</text><a xmlns:xlink="http://www.w3.org/1999/xlink" xlink:href="#tableName" xlink:title="tableName"><rect width="88" height="32" x="683" y="3"/><rect width="88" height="32" x="681" y="1" class="nonterminal"/><text x="691" y="21" class="nonterminal">tableName</text></a><rect width="26" height="32" x="89" y="365" rx="10"/><rect width="26" height="32" x="87" y="363" class="terminal" rx="10"/><text x="97" y="383" class="terminal">(</text><a xmlns:xlink="http://www.w3.org/1999/xlink" xlink:href="#columnName" xlink:title="columnName"><rect width="102" height="32" x="155" y="365"/><rect width="102" height="32" x="153" y="363" class="nonterminal"/><text x="163" y="383" class="nonterminal">columnName</text></a><rect width="24" height="32" x="155" y="321" rx="10"/><rect width="24" height="32" x="153" y="319" class="terminal" rx="10"/><text x="163" y="339" class="terminal">,</text><rect width="26" height="32" x="297" y="365" rx="10"/><rect width="26" height="32" x="295" y="363" class="terminal" rx="10"/><text x="305" y="383" class="terminal">)</text><rect width="72" height="32" x="383" y="365" rx="10"/><rect width="72" height="32" x="381" y="363" class="terminal" rx="10"/><text x="391" y="383" class="terminal">VALUES</text><rect width="26" height="32" x="495" y="365" rx="10"/><rect width="26" height="32" x="493" y="363" class="terminal" rx="10"/><text x="503" y="383" class="terminal">(</text><a xmlns:xlink="http://www.w3.org/1999/xlink" xlink:href="#value" xlink:title="value"><rect width="54" height="32" x="561" y="365"/><rect width="54" height="32" x="559" y="363" class="nonterminal"/><text x="569" y="383" class="nonterminal">value</text></a><rect width="24" height="32" x="561" y="321" rx="10"/><rect width="24" height="32" x="559" y="319" class="terminal" rx="10"/><text x="569" y="339" class="terminal">,</text><rect width="26" height="32" x="655" y="365" rx="10"/><rect width="26" height="32" x="653" y="363" class="terminal" rx="10"/><text x="663" y="383" class="terminal">)</text><rect width="24" height="32" x="495" y="277" rx="10"/><rect width="24" height="32" x="493" y="275" class="terminal" rx="10"/><text x="503" y="295" class="terminal">,</text><rect width="70" height="32" x="383" y="409" rx="10"/><rect width="70" height="32" x="381" y="407" class="terminal" rx="10"/><text x="391" y="427" class="terminal">SELECT</text><a xmlns:xlink="http://www.w3.org/1999/xlink" xlink:href="#queryDef" xlink:title="queryDef"><rect width="78" height="32" x="473" y="409"/><rect width="78" height="32" x="471" y="407" class="nonterminal"/><text x="481" y="427" class="nonterminal">queryDef</text></a><rect width="24" height="32" x="741" y="365" rx="10"/><rect width="24" height="32" x="739" y="363" class="terminal" rx="10"/><text x="749" y="383" class="terminal">;</text><svg:path xmlns:svg="http://www.w3.org/2000/svg" d="m17 17 h2 m0 0 h10 m70 0 h10 m20 0 h10 m0 0 h436 m-466 0 h20 m446 0 h20 m-486 0 q10 0 10 10 m466 0 q0 -10 10 -10 m-476 10 v12 m466 0 v-12 m-466 12 q0 10 10 10 m446 0 q10 0 10 -10 m-456 10 h10 m56 0 h10 m0 0 h10 m92 0 h10 m0 0 h10 m94 0 h10 m0 0 h10 m28 0 h10 m20 0 h10 m36 0 h10 m-76 0 h20 m56 0 h20 m-96 0 q10 0 10 10 m76 0 q0 -10 10 -10 m-86 10 v24 m76 0 v-24 m-76 24 q0 10 10 10 m56 0 q10 0 10 -10 m-66 10 h10 m26 0 h10 m0 0 h10 m-66 -10 v20 m76 0 v-20 m-76 20 v24 m76 0 v-24 m-76 24 q0 10 10 10 m56 0 q10 0 10 -10 m-66 10 h10 m32 0 h10 m0 0 h4 m-66 -10 v20 m76 0 v-20 m-76 20 v24 m76 0 v-24 m-76 24 q0 10 10 10 m56 0 q10 0 10 -10 m-66 10 h10 m28 0 h10 m0 0 h8 m-66 -10 v20 m76 0 v-20 m-76 20 v24 m76 0 v-24 m-76 24 q0 10 10 10 m56 0 q10 0 10 -10 m-66 10 h10 m28 0 h10 m0 0 h8 m40 -208 h10 m56 0 h10 m0 0 h10 m88 0 h10 m2 0 l2 0 m2 0 l2 0 m2 0 l2 0 m-746 362 l2 0 m2 0 l2 0 m2 0 l2 0 m22 0 h10 m26 0 h10 m20 0 h10 m102 0 h10 m-142 0 l20 0 m-1 0 q-9 0 -9 -10 l0 -24 q0 -10 10 -10 m122 44 l20 0 m-20 0 q10 0 10 -10 l0 -24 q0 -10 -10 -10 m-122 0 h10 m24 0 h10 m0 0 h78 m20 44 h10 m26 0 h10 m-274 0 h20 m254 0 h20 m-294 0 q10 0 10 10 m274 0 q0 -10 10 -10 m-284 10 v14 m274 0 v-14 m-274 14 q0 10 10 10 m254 0 q10 0 10 -10 m-264 10 h10 m0 0 h244 m40 -34 h10 m72 0 h10 m20 0 h10 m26 0 h10 m20 0 h10 m54 0 h10 m-94 0 l20 0 m-1 0 q-9 0 -9 -10 l0 -24 q0 -10 10 -10 m74 44 l20 0 m-20 0 q10 0 10 -10 l0 -24 q0 -10 -10 -10 m-74 0 h10 m24 0 h10 m0 0 h30 m20 44 h10 m26 0 h10 m-226 0 l20 0 m-1 0 q-9 0 -9 -10 l0 -68 q0 -10 10 -10 m206 88 l20 0 m-20 0 q10 0 10 -10 l0 -68 q0 -10 -10 -10 m-206 0 h10 m24 0 h10 m0 0 h162 m-338 88 h20 m338 0 h20 m-378 0 q10 0 10 10 m358 0 q0 -10 10 -10 m-368 10 v24 m358 0 v-24 m-358 24 q0 10 10 10 m338 0 q10 0 10 -10 m-348 10 h10 m70 0 h10 m0 0 h10 m78 0 h10 m0 0 h150 m20 -44 h10 m24 0 h10 m3 0 h-3" class="line"/><polygon points="783 379 791 375 791 383"/><polygon points="783 379 775 375 775 383"/></svg>