<svg xmlns="http://www.w3.org/2000/svg" width="955" height="191"><defs><style type="text/css">@namespace &quot;http://www.w3.org/2000/svg&quot;;.line{fill:none;stroke:#636273}text.nonterminal,text.terminal{font-family:-apple-system,BlinkMacSystemFont,&quot;Segoe UI&quot;,Roboto,Ubuntu,Cantarell,Helvetica,sans-serif;font-size:12px}text.terminal{fill:#fff;font-weight:700}text.nonterminal{fill:#e289a4;font-weight:400}polygon,rect{fill:none;stroke:none}rect.terminal{fill:none;stroke:#be2f5b}rect.nonterminal{fill:rgba(255,255,255,.1);stroke:none}</style></defs><polygon points="9 61 1 57 1 65"/><polygon points="17 61 9 57 9 65"/><rect width="70" height="32" x="31" y="47" rx="10"/><rect width="70" height="32" x="29" y="45" class="terminal" rx="10"/><text x="39" y="65" class="terminal">SELECT</text><a xmlns:xlink="http://www.w3.org/1999/xlink" xlink:href="#columnName" xlink:title="columnName"><rect width="102" height="32" x="141" y="47"/><rect width="102" height="32" x="139" y="45" class="nonterminal"/><text x="149" y="65" class="nonterminal">columnName</text></a><rect width="24" height="32" x="141" y="3" rx="10"/><rect width="24" height="32" x="139" y="1" class="terminal" rx="10"/><text x="149" y="21" class="terminal">,</text><rect width="60" height="32" x="283" y="47" rx="10"/><rect width="60" height="32" x="281" y="45" class="terminal" rx="10"/><text x="291" y="65" class="terminal">FROM</text><a xmlns:xlink="http://www.w3.org/1999/xlink" xlink:href="#tableName" xlink:title="tableName"><rect width="88" height="32" x="363" y="47"/><rect width="88" height="32" x="361" y="45" class="nonterminal"/><text x="371" y="65" class="nonterminal">tableName</text></a><rect width="70" height="32" x="471" y="47" rx="10"/><rect width="70" height="32" x="469" y="45" class="terminal" rx="10"/><text x="479" y="65" class="terminal">LATEST</text><rect width="40" height="32" x="561" y="47" rx="10"/><rect width="40" height="32" x="559" y="45" class="terminal" rx="10"/><text x="569" y="65" class="terminal">ON</text><rect width="26" height="32" x="621" y="47" rx="10"/><rect width="26" height="32" x="619" y="45" class="terminal" rx="10"/><text x="629" y="65" class="terminal">(</text><a xmlns:xlink="http://www.w3.org/1999/xlink" xlink:href="#columnName" xlink:title="columnName"><rect width="102" height="32" x="667" y="47"/><rect width="102" height="32" x="665" y="45" class="nonterminal"/><text x="675" y="65" class="nonterminal">columnName</text></a><rect width="26" height="32" x="789" y="47" rx="10"/><rect width="26" height="32" x="787" y="45" class="terminal" rx="10"/><text x="797" y="65" class="terminal">)</text><rect width="98" height="32" x="835" y="47" rx="10"/><rect width="98" height="32" x="833" y="45" class="terminal" rx="10"/><text x="843" y="65" class="terminal">PARTITION</text><rect width="38" height="32" x="727" y="157" rx="10"/><rect width="38" height="32" x="725" y="155" class="terminal" rx="10"/><text x="735" y="175" class="terminal">BY</text><a xmlns:xlink="http://www.w3.org/1999/xlink" xlink:href="#columnName" xlink:title="columnName"><rect width="102" height="32" x="805" y="157"/><rect width="102" height="32" x="803" y="155" class="nonterminal"/><text x="813" y="175" class="nonterminal">columnName</text></a><rect width="24" height="32" x="805" y="113" rx="10"/><rect width="24" height="32" x="803" y="111" class="terminal" rx="10"/><text x="813" y="131" class="terminal">,</text><path xmlns:svg="http://www.w3.org/2000/svg" d="m17 61 h2 m0 0 h10 m70 0 h10 m20 0 h10 m102 0 h10 m-142 0 l20 0 m-1 0 q-9 0 -9 -10 l0 -24 q0 -10 10 -10 m122 44 l20 0 m-20 0 q10 0 10 -10 l0 -24 q0 -10 -10 -10 m-122 0 h10 m24 0 h10 m0 0 h78 m20 44 h10 m60 0 h10 m0 0 h10 m88 0 h10 m0 0 h10 m70 0 h10 m0 0 h10 m40 0 h10 m0 0 h10 m26 0 h10 m0 0 h10 m102 0 h10 m0 0 h10 m26 0 h10 m0 0 h10 m98 0 h10 m2 0 l2 0 m2 0 l2 0 m2 0 l2 0 m-250 110 l2 0 m2 0 l2 0 m2 0 l2 0 m2 0 h10 m38 0 h10 m20 0 h10 m102 0 h10 m-142 0 l20 0 m-1 0 q-9 0 -9 -10 l0 -24 q0 -10 10 -10 m122 44 l20 0 m-20 0 q10 0 10 -10 l0 -24 q0 -10 -10 -10 m-122 0 h10 m24 0 h10 m0 0 h78 m23 44 h-3" class="line"/><polygon points="945 171 953 167 953 175"/><polygon points="945 171 937 167 937 175"/></svg>