<svg xmlns="http://www.w3.org/2000/svg" width="747" height="81"><defs><style type="text/css">@namespace &quot;http://www.w3.org/2000/svg&quot;;.line{fill:none;stroke:#636273}text.nonterminal,text.terminal{font-family:-apple-system,BlinkMacSystemFont,&quot;Segoe UI&quot;,Roboto,Ubuntu,Cantarell,Helvetica,sans-serif;font-size:12px}text.terminal{fill:#fff;font-weight:700}text.nonterminal{fill:#e289a4;font-weight:400}polygon,rect{fill:none;stroke:none}rect.terminal{fill:none;stroke:#be2f5b}rect.nonterminal{fill:rgba(255,255,255,.1);stroke:none}</style></defs><polygon points="9 17 1 13 1 21"/><polygon points="17 17 9 13 9 21"/><rect width="70" height="32" x="31" y="3" rx="10"/><rect width="70" height="32" x="29" y="1" class="terminal" rx="10"/><text x="39" y="21" class="terminal">SELECT</text><a xmlns:xlink="http://www.w3.org/1999/xlink" xlink:href="#someSelectStatement" xlink:title="someSelectStatement"><rect width="160" height="32" x="121" y="3"/><rect width="160" height="32" x="119" y="1" class="nonterminal"/><text x="129" y="21" class="nonterminal">someSelectStatement</text></a><rect width="60" height="32" x="301" y="3" rx="10"/><rect width="60" height="32" x="299" y="1" class="terminal" rx="10"/><text x="309" y="21" class="terminal">LIMIT</text><a xmlns:xlink="http://www.w3.org/1999/xlink" xlink:href="#numberOfRecords" xlink:title="numberOfRecords"><rect width="132" height="32" x="401" y="3"/><rect width="132" height="32" x="399" y="1" class="nonterminal"/><text x="409" y="21" class="nonterminal">numberOfRecords</text></a><a xmlns:xlink="http://www.w3.org/1999/xlink" xlink:href="#upperBound" xlink:title="upperBound"><rect width="96" height="32" x="401" y="47"/><rect width="96" height="32" x="399" y="45" class="nonterminal"/><text x="409" y="65" class="nonterminal">lowerBound</text></a><rect width="24" height="32" x="517" y="47" rx="10"/><rect width="24" height="32" x="515" y="45" class="terminal" rx="10"/><text x="525" y="65" class="terminal">,</text><a xmlns:xlink="http://www.w3.org/1999/xlink" xlink:href="#lowerBound" xlink:title="lowerBound"><rect width="94" height="32" x="561" y="47"/><rect width="94" height="32" x="559" y="45" class="nonterminal"/><text x="569" y="65" class="nonterminal">upperBound</text></a><rect width="24" height="32" x="695" y="3" rx="10"/><rect width="24" height="32" x="693" y="1" class="terminal" rx="10"/><text x="703" y="21" class="terminal">;</text><path xmlns:svg="http://www.w3.org/2000/svg" d="m17 17 h2 m0 0 h10 m70 0 h10 m0 0 h10 m160 0 h10 m0 0 h10 m60 0 h10 m20 0 h10 m132 0 h10 m0 0 h122 m-294 0 h20 m274 0 h20 m-314 0 q10 0 10 10 m294 0 q0 -10 10 -10 m-304 10 v24 m294 0 v-24 m-294 24 q0 10 10 10 m274 0 q10 0 10 -10 m-284 10 h10 m96 0 h10 m0 0 h10 m24 0 h10 m0 0 h10 m94 0 h10 m20 -44 h10 m24 0 h10 m3 0 h-3" class="line"/><polygon points="737 17 745 13 745 21"/><polygon points="737 17 729 13 729 21"/></svg>