<svg xmlns="http://www.w3.org/2000/svg" width="605" height="157"><defs><style type="text/css">@namespace &quot;http://www.w3.org/2000/svg&quot;;.line{fill:none;stroke:#636273}text.nonterminal,text.terminal{font-family:-apple-system,BlinkMacSystemFont,&quot;Segoe UI&quot;,Roboto,Ubuntu,Cantarell,Helvetica,sans-serif;font-size:12px}text.terminal{fill:#fff;font-weight:700}text.nonterminal{fill:#e289a4;font-weight:400}polygon,rect{fill:none;stroke:none}rect.terminal{fill:none;stroke:#be2f5b}rect.nonterminal{fill:rgba(255,255,255,.1);stroke:none}</style></defs><polygon points="9 61 1 57 1 65"/><polygon points="17 61 9 57 9 65"/><a xmlns:xlink="http://www.w3.org/1999/xlink" xlink:href="#someSelectQuery" xlink:title="someSelectQuery"><rect width="130" height="32" x="31" y="47"/><rect width="130" height="32" x="29" y="45" class="nonterminal"/><text x="39" y="65" class="nonterminal">someSelectQuery</text></a><rect width="68" height="32" x="181" y="47" rx="10"/><rect width="68" height="32" x="179" y="45" class="terminal" rx="10"/><text x="189" y="65" class="terminal">ORDER</text><rect width="38" height="32" x="269" y="47" rx="10"/><rect width="38" height="32" x="267" y="45" class="terminal" rx="10"/><text x="277" y="65" class="terminal">BY</text><a xmlns:xlink="http://www.w3.org/1999/xlink" xlink:href="#columnName" xlink:title="columnName"><rect width="102" height="32" x="347" y="47"/><rect width="102" height="32" x="345" y="45" class="nonterminal"/><text x="355" y="65" class="nonterminal">columnName</text></a><a xmlns:xlink="http://www.w3.org/1999/xlink" xlink:href="#asc" xlink:title="asc"><rect width="40" height="32" x="489" y="79"/><rect width="40" height="32" x="487" y="77" class="nonterminal"/><text x="497" y="97" class="nonterminal">asc</text></a><a xmlns:xlink="http://www.w3.org/1999/xlink" xlink:href="#desc" xlink:title="desc"><rect width="48" height="32" x="489" y="123"/><rect width="48" height="32" x="487" y="121" class="nonterminal"/><text x="497" y="141" class="nonterminal">desc</text></a><rect width="24" height="32" x="347" y="3" rx="10"/><rect width="24" height="32" x="345" y="1" class="terminal" rx="10"/><text x="355" y="21" class="terminal">,</text><path xmlns:svg="http://www.w3.org/2000/svg" d="m17 61 h2 m0 0 h10 m130 0 h10 m0 0 h10 m68 0 h10 m0 0 h10 m38 0 h10 m20 0 h10 m102 0 h10 m20 0 h10 m0 0 h58 m-88 0 h20 m68 0 h20 m-108 0 q10 0 10 10 m88 0 q0 -10 10 -10 m-98 10 v12 m88 0 v-12 m-88 12 q0 10 10 10 m68 0 q10 0 10 -10 m-78 10 h10 m40 0 h10 m0 0 h8 m-78 -10 v20 m88 0 v-20 m-88 20 v24 m88 0 v-24 m-88 24 q0 10 10 10 m68 0 q10 0 10 -10 m-78 10 h10 m48 0 h10 m-230 -76 l20 0 m-1 0 q-9 0 -9 -10 l0 -24 q0 -10 10 -10 m230 44 l20 0 m-20 0 q10 0 10 -10 l0 -24 q0 -10 -10 -10 m-230 0 h10 m24 0 h10 m0 0 h186 m23 44 h-3" class="line"/><polygon points="595 61 603 57 603 65"/><polygon points="595 61 587 57 587 65"/></svg>