<svg xmlns="http://www.w3.org/2000/svg" width="1000" height="240"><defs><style type="text/css">@namespace &quot;http://www.w3.org/2000/svg&quot;;.line{fill:none;stroke:#636273}text.nonterminal,text.terminal{font-family:-apple-system,BlinkMacSystemFont,&quot;Segoe UI&quot;,Roboto,Ubuntu,Cantarell,Helvetica,sans-serif;font-size:12px}text.terminal{fill:#fff;font-weight:700}text.nonterminal{fill:#e289a4;font-weight:400}polygon,rect{fill:none;stroke:none}rect.terminal{fill:none;stroke:#be2f5b}rect.nonterminal{fill:rgba(255,255,255,.1);stroke:none}</style></defs><polygon points="9 33 1 29 1 37"/><polygon points="17 33 9 29 9 37"/><rect width="80" height="32" x="31" y="19" rx="10"/><rect width="80" height="32" x="29" y="17" class="terminal" rx="10"/><text x="39" y="37" class="terminal">REINDEX</text><rect width="62" height="32" x="131" y="19" rx="10"/><rect width="62" height="32" x="129" y="17" class="terminal" rx="10"/><text x="139" y="37" class="terminal">TABLE</text><a xmlns:xlink="http://www.w3.org/1999/xlink" xlink:href="#tableName" xlink:title="tableName"><rect width="88" height="32" x="213" y="19"/><rect width="88" height="32" x="211" y="17" class="nonterminal"/><text x="221" y="37" class="nonterminal">tableName</text></a><rect width="76" height="32" x="361" y="19" rx="10"/><rect width="76" height="32" x="359" y="17" class="terminal" rx="10"/><text x="369" y="37" class="terminal">COLUMN</text><a xmlns:xlink="http://www.w3.org/1999/xlink" xlink:href="#columnName" xlink:title="columnName"><rect width="102" height="32" x="457" y="19"/><rect width="102" height="32" x="455" y="17" class="nonterminal"/><text x="465" y="37" class="nonterminal">columnName</text></a><rect width="98" height="32" x="659" y="19" rx="10"/><rect width="98" height="32" x="657" y="17" class="terminal" rx="10"/><text x="667" y="37" class="terminal">PARTITION</text><a xmlns:xlink="http://www.w3.org/1999/xlink" xlink:href="#partitionName" xlink:title="partitionName"><rect width="110" height="32" x="777" y="19"/><rect width="110" height="32" x="775" y="17" class="nonterminal"/><text x="785" y="37" class="nonterminal">partitionName</text></a><rect width="56" height="32" x="749" y="101" rx="10"/><rect width="56" height="32" x="747" y="99" class="terminal" rx="10"/><text x="757" y="119" class="terminal">LOCK</text><rect width="96" height="32" x="825" y="101" rx="10"/><rect width="96" height="32" x="823" y="99" class="terminal" rx="10"/><text x="833" y="119" class="terminal">EXCLUSIVE</text><path xmlns:svg="http://www.w3.org/2000/svg" d="m17 33 h2 m0 0 h10 m80 0 h10 m0 0 h10 m62 0 h10 m0 0 h10 m88 0 h10 m40 0 h10 m76 0 h10 m0 0 h10 m102 0 h10 m-238 0 l20 0 m-1 0 q-9 0 -9 -10 l0 -12 q0 -10 10 -10 m218 32 l20 0 m-20 0 q10 0 10 -10 l0 -12 q0 -10 -10 -10 m-218 0 h10 m0 0 h208 m-258 32 h20 m258 0 h20 m-298 0 q10 0 10 10 m278 0 q0 -10 10 -10 m-288 10 v14 m278 0 v-14 m-278 14 q0 10 10 10 m258 0 q10 0 10 -10 m-268 10 h10 m0 0 h248 m60 -34 h10 m98 0 h10 m0 0 h10 m110 0 h10 m-268 0 l20 0 m-1 0 q-9 0 -9 -10 l0 -12 q0 -10 10 -10 m248 32 l20 0 m-20 0 q10 0 10 -10 l0 -12 q0 -10 -10 -10 m-248 0 h10 m0 0 h238 m-288 32 h20 m288 0 h20 m-328 0 q10 0 10 10 m308 0 q0 -10 10 -10 m-318 10 v14 m308 0 v-14 m-308 14 q0 10 10 10 m288 0 q10 0 10 -10 m-298 10 h10 m0 0 h278 m22 -34 l2 0 m2 0 l2 0 m2 0 l2 0 m-222 82 l2 0 m2 0 l2 0 m2 0 l2 0 m2 0 h10 m56 0 h10 m0 0 h10 m96 0 h10 m3 0 h-3" class="line"/><polygon points="939 115 947 111 947 119"/><polygon points="939 115 931 111 931 119"/></svg>