<svg xmlns="http://www.w3.org/2000/svg" width="473" height="37"><defs><style type="text/css">@namespace &quot;http://www.w3.org/2000/svg&quot;;.line{fill:none;stroke:#636273}text.nonterminal,text.terminal{font-family:-apple-system,BlinkMacSystemFont,&quot;Segoe UI&quot;,Roboto,Ubuntu,Cantarell,Helvetica,sans-serif;font-size:12px}text.terminal{fill:#fff;font-weight:700}text.nonterminal{fill:#e289a4;font-weight:400}polygon,rect{fill:none;stroke:none}rect.terminal{fill:none;stroke:#be2f5b}rect.nonterminal{fill:rgba(255,255,255,.1);stroke:none}</style></defs><polygon points="9 17 1 13 1 21"/><polygon points="17 17 9 13 9 21"/><rect width="76" height="32" x="31" y="3" rx="10"/><rect width="76" height="32" x="29" y="1" class="terminal" rx="10"/><text x="39" y="21" class="terminal">RENAME</text><rect width="62" height="32" x="127" y="3" rx="10"/><rect width="62" height="32" x="125" y="1" class="terminal" rx="10"/><text x="135" y="21" class="terminal">TABLE</text><a xmlns:xlink="http://www.w3.org/1999/xlink" xlink:href="#oldName" xlink:title="oldName"><rect width="76" height="32" x="209" y="3"/><rect width="76" height="32" x="207" y="1" class="nonterminal"/><text x="217" y="21" class="nonterminal">oldName</text></a><rect width="38" height="32" x="305" y="3" rx="10"/><rect width="38" height="32" x="303" y="1" class="terminal" rx="10"/><text x="313" y="21" class="terminal">TO</text><a xmlns:xlink="http://www.w3.org/1999/xlink" xlink:href="#newName" xlink:title="newName"><rect width="82" height="32" x="363" y="3"/><rect width="82" height="32" x="361" y="1" class="nonterminal"/><text x="371" y="21" class="nonterminal">newName</text></a><path xmlns:svg="http://www.w3.org/2000/svg" d="m17 17 h2 m0 0 h10 m76 0 h10 m0 0 h10 m62 0 h10 m0 0 h10 m76 0 h10 m0 0 h10 m38 0 h10 m0 0 h10 m82 0 h10 m3 0 h-3" class="line"/><polygon points="463 17 471 13 471 21"/><polygon points="463 17 455 13 455 21"/></svg>