<svg xmlns="http://www.w3.org/2000/svg" width="523" height="289"><defs><style type="text/css">@namespace &quot;http://www.w3.org/2000/svg&quot;;.line{fill:none;stroke:#636273}text.nonterminal,text.terminal{font-family:-apple-system,BlinkMacSystemFont,&quot;Segoe UI&quot;,Roboto,Ubuntu,Cantarell,Helvetica,sans-serif;font-size:12px}text.terminal{fill:#fff;font-weight:700}text.nonterminal{fill:#e289a4;font-weight:400}polygon,rect{fill:none;stroke:none}rect.terminal{fill:none;stroke:#be2f5b}rect.nonterminal{fill:rgba(255,255,255,.1);stroke:none}</style></defs><polygon points="9 17 1 13 1 21"/><polygon points="17 17 9 13 9 21"/><a xmlns:xlink="http://www.w3.org/1999/xlink" xlink:href="#someSelectStatement..." xlink:title="someSelectStatement..."><rect width="172" height="32" x="31" y="3"/><rect width="172" height="32" x="29" y="1" class="nonterminal"/><text x="39" y="21" class="nonterminal">someSelectStatement...</text></a><rect width="74" height="32" x="223" y="3" rx="10"/><rect width="74" height="32" x="221" y="1" class="terminal" rx="10"/><text x="231" y="21" class="terminal">SAMPLE</text><rect width="38" height="32" x="317" y="3" rx="10"/><rect width="38" height="32" x="315" y="1" class="terminal" rx="10"/><text x="325" y="21" class="terminal">BY</text><a xmlns:xlink="http://www.w3.org/1999/xlink" xlink:href="#n" xlink:title="n"><rect width="28" height="32" x="375" y="3"/><rect width="28" height="32" x="373" y="1" class="nonterminal"/><text x="383" y="21" class="nonterminal">n</text></a><rect width="28" height="32" x="443" y="35" rx="10"/><rect width="28" height="32" x="441" y="33" class="terminal" rx="10"/><text x="451" y="53" class="terminal">T</text><rect width="26" height="32" x="443" y="79" rx="10"/><rect width="26" height="32" x="441" y="77" class="terminal" rx="10"/><text x="451" y="97" class="terminal">s</text><rect width="32" height="32" x="443" y="123" rx="10"/><rect width="32" height="32" x="441" y="121" class="terminal" rx="10"/><text x="451" y="141" class="terminal">m</text><rect width="28" height="32" x="443" y="167" rx="10"/><rect width="28" height="32" x="441" y="165" class="terminal" rx="10"/><text x="451" y="185" class="terminal">h</text><rect width="28" height="32" x="443" y="211" rx="10"/><rect width="28" height="32" x="441" y="209" class="terminal" rx="10"/><text x="451" y="229" class="terminal">d</text><rect width="30" height="32" x="443" y="255" rx="10"/><rect width="30" height="32" x="441" y="253" class="terminal" rx="10"/><text x="451" y="273" class="terminal">M</text><svg:path xmlns:svg="http://www.w3.org/2000/svg" d="m17 17 h2 m0 0 h10 m172 0 h10 m0 0 h10 m74 0 h10 m0 0 h10 m38 0 h10 m0 0 h10 m28 0 h10 m20 0 h10 m0 0 h42 m-72 0 h20 m52 0 h20 m-92 0 q10 0 10 10 m72 0 q0 -10 10 -10 m-82 10 v12 m72 0 v-12 m-72 12 q0 10 10 10 m52 0 q10 0 10 -10 m-62 10 h10 m28 0 h10 m0 0 h4 m-62 -10 v20 m72 0 v-20 m-72 20 v24 m72 0 v-24 m-72 24 q0 10 10 10 m52 0 q10 0 10 -10 m-62 10 h10 m26 0 h10 m0 0 h6 m-62 -10 v20 m72 0 v-20 m-72 20 v24 m72 0 v-24 m-72 24 q0 10 10 10 m52 0 q10 0 10 -10 m-62 10 h10 m32 0 h10 m-62 -10 v20 m72 0 v-20 m-72 20 v24 m72 0 v-24 m-72 24 q0 10 10 10 m52 0 q10 0 10 -10 m-62 10 h10 m28 0 h10 m0 0 h4 m-62 -10 v20 m72 0 v-20 m-72 20 v24 m72 0 v-24 m-72 24 q0 10 10 10 m52 0 q10 0 10 -10 m-62 10 h10 m28 0 h10 m0 0 h4 m-62 -10 v20 m72 0 v-20 m-72 20 v24 m72 0 v-24 m-72 24 q0 10 10 10 m52 0 q10 0 10 -10 m-62 10 h10 m30 0 h10 m0 0 h2 m23 -252 h-3" class="line"/><polygon points="513 17 521 13 521 21"/><polygon points="513 17 505 13 505 21"/></svg>