<svg xmlns="http://www.w3.org/2000/svg" width="834" height="184"><defs><style type="text/css">@namespace &quot;http://www.w3.org/2000/svg&quot;;.line{fill:none;stroke:#636273}text.nonterminal,text.terminal{font-family:-apple-system,BlinkMacSystemFont,&quot;Segoe UI&quot;,Roboto,Ubuntu,Cantarell,Helvetica,sans-serif;font-size:12px}text.terminal{fill:#fff;font-weight:700}text.nonterminal{fill:#e289a4;font-weight:400}polygon,rect{fill:none;stroke:none}rect.terminal{fill:none;stroke:#be2f5b}rect.nonterminal{fill:rgba(255,255,255,.1);stroke:none}</style></defs><polygon points="9 61 1 57 1 65"/><polygon points="17 61 9 57 9 65"/><a xmlns:xlink="http://www.w3.org/1999/xlink" xlink:href="#select" xlink:title="select"><rect width="56" height="32" x="51" y="47"/><rect width="56" height="32" x="49" y="45" class="nonterminal"/><text x="59" y="65" class="nonterminal">select</text></a><a xmlns:xlink="http://www.w3.org/1999/xlink" xlink:href="#column" xlink:title="column"><rect width="64" height="32" x="167" y="47"/><rect width="64" height="32" x="165" y="45" class="nonterminal"/><text x="175" y="65" class="nonterminal">column</text></a><a xmlns:xlink="http://www.w3.org/1999/xlink" xlink:href="#expression" xlink:title="expression"><rect width="88" height="32" x="167" y="91"/><rect width="88" height="32" x="165" y="89" class="nonterminal"/><text x="175" y="109" class="nonterminal">expression</text></a><a xmlns:xlink="http://www.w3.org/1999/xlink" xlink:href="#function" xlink:title="function"><rect width="70" height="32" x="167" y="135"/><rect width="70" height="32" x="165" y="133" class="nonterminal"/><text x="175" y="153" class="nonterminal">function</text></a><a xmlns:xlink="http://www.w3.org/1999/xlink" xlink:href="#alias" xlink:title="alias"><rect width="48" height="32" x="315" y="79"/><rect width="48" height="32" x="313" y="77" class="nonterminal"/><text x="323" y="97" class="nonterminal">alias</text></a><rect width="24" height="32" x="147" y="3" rx="10"/><rect width="24" height="32" x="145" y="1" class="terminal" rx="10"/><text x="155" y="21" class="terminal">,</text><a xmlns:xlink="http://www.w3.org/1999/xlink" xlink:href="#from" xlink:title="from"><rect width="48" height="32" x="423" y="47"/><rect width="48" height="32" x="421" y="45" class="nonterminal"/><text x="431" y="65" class="nonterminal">from</text></a><a xmlns:xlink="http://www.w3.org/1999/xlink" xlink:href="#table" xlink:title="table"><rect width="52" height="32" x="531" y="47"/><rect width="52" height="32" x="529" y="45" class="nonterminal"/><text x="539" y="65" class="nonterminal">table</text></a><rect width="26" height="32" x="531" y="91" rx="10"/><rect width="26" height="32" x="529" y="89" class="terminal" rx="10"/><text x="539" y="109" class="terminal">(</text><a xmlns:xlink="http://www.w3.org/1999/xlink" xlink:href="#query" xlink:title="query"><rect width="56" height="32" x="577" y="91"/><rect width="56" height="32" x="575" y="89" class="nonterminal"/><text x="585" y="109" class="nonterminal">query</text></a><rect width="26" height="32" x="653" y="91" rx="10"/><rect width="26" height="32" x="651" y="89" class="terminal" rx="10"/><text x="661" y="109" class="terminal">)</text><a xmlns:xlink="http://www.w3.org/1999/xlink" xlink:href="#alias" xlink:title="alias"><rect width="48" height="32" x="739" y="79"/><rect width="48" height="32" x="737" y="77" class="nonterminal"/><text x="747" y="97" class="nonterminal">alias</text></a><svg:path xmlns:svg="http://www.w3.org/2000/svg" d="m17 61 h2 m20 0 h10 m56 0 h10 m40 0 h10 m64 0 h10 m0 0 h24 m-128 0 h20 m108 0 h20 m-148 0 q10 0 10 10 m128 0 q0 -10 10 -10 m-138 10 v24 m128 0 v-24 m-128 24 q0 10 10 10 m108 0 q10 0 10 -10 m-118 10 h10 m88 0 h10 m-118 -10 v20 m128 0 v-20 m-128 20 v24 m128 0 v-24 m-128 24 q0 10 10 10 m108 0 q10 0 10 -10 m-118 10 h10 m70 0 h10 m0 0 h18 m40 -88 h10 m0 0 h58 m-88 0 h20 m68 0 h20 m-108 0 q10 0 10 10 m88 0 q0 -10 10 -10 m-98 10 v12 m88 0 v-12 m-88 12 q0 10 10 10 m68 0 q10 0 10 -10 m-78 10 h10 m48 0 h10 m-256 -32 l20 0 m-1 0 q-9 0 -9 -10 l0 -24 q0 -10 10 -10 m256 44 l20 0 m-20 0 q10 0 10 -10 l0 -24 q0 -10 -10 -10 m-256 0 h10 m24 0 h10 m0 0 h212 m20 44 h10 m48 0 h10 m-460 0 h20 m440 0 h20 m-480 0 q10 0 10 10 m460 0 q0 -10 10 -10 m-470 10 v102 m460 0 v-102 m-460 102 q0 10 10 10 m440 0 q10 0 10 -10 m-450 10 h10 m0 0 h430 m40 -122 h10 m52 0 h10 m0 0 h96 m-188 0 h20 m168 0 h20 m-208 0 q10 0 10 10 m188 0 q0 -10 10 -10 m-198 10 v24 m188 0 v-24 m-188 24 q0 10 10 10 m168 0 q10 0 10 -10 m-178 10 h10 m26 0 h10 m0 0 h10 m56 0 h10 m0 0 h10 m26 0 h10 m40 -44 h10 m0 0 h58 m-88 0 h20 m68 0 h20 m-108 0 q10 0 10 10 m88 0 q0 -10 10 -10 m-98 10 v12 m88 0 v-12 m-88 12 q0 10 10 10 m68 0 q10 0 10 -10 m-78 10 h10 m48 0 h10 m23 -32 h-3" class="line"/><polygon points="825 61 833 57 833 65"/><polygon points="825 61 817 57 817 65"/></svg>