<svg xmlns="http://www.w3.org/2000/svg" width="447" height="125"><defs><style type="text/css">@namespace &quot;http://www.w3.org/2000/svg&quot;;.line{fill:none;stroke:#636273}text.terminal{font-family:-apple-system,BlinkMacSystemFont,&quot;Segoe UI&quot;,Roboto,Ubuntu,Cantarell,Helvetica,sans-serif;font-size:12px;fill:#fff;font-weight:700}polygon,rect{fill:none;stroke:none}rect.terminal{fill:none;stroke:#be2f5b}</style></defs><polygon points="9 17 1 13 1 21"/><polygon points="17 17 9 13 9 21"/><rect width="96" height="32" x="31" y="3" rx="10"/><rect width="96" height="32" x="29" y="1" class="terminal" rx="10"/><text x="39" y="21" class="terminal">SNAPSHOT</text><rect width="82" height="32" x="167" y="3" rx="10"/><rect width="82" height="32" x="165" y="1" class="terminal" rx="10"/><text x="175" y="21" class="terminal">PREPARE</text><rect width="92" height="32" x="167" y="47" rx="10"/><rect width="92" height="32" x="165" y="45" class="terminal" rx="10"/><text x="175" y="65" class="terminal">COMPLETE</text><rect width="24" height="32" x="299" y="3" rx="10"/><rect width="24" height="32" x="297" y="1" class="terminal" rx="10"/><text x="307" y="21" class="terminal">;</text><path xmlns:svg="http://www.w3.org/2000/svg" d="m17 17 h2 m0 0 h10 m96 0 h10 m20 0 h10 m82 0 h10 m0 0 h10 m-132 0 h20 m112 0 h20 m-152 0 q10 0 10 10 m132 0 q0 -10 10 -10 m-142 10 v24 m132 0 v-24 m-132 24 q0 10 10 10 m112 0 q10 0 10 -10 m-122 10 h10 m92 0 h10 m20 -44 h10 m24 0 h10 m3 0 h-3" class="line"/><polygon points="341 17 349 13 349 21"/><polygon points="341 17 333 13 333 21"/></svg>