<svg xmlns="http://www.w3.org/2000/svg" width="675" height="37"><defs><style type="text/css">@namespace &quot;http://www.w3.org/2000/svg&quot;;.line{fill:none;stroke:#636273}text.nonterminal,text.terminal{font-family:-apple-system,BlinkMacSystemFont,&quot;Segoe UI&quot;,Roboto,Ubuntu,Cantarell,Helvetica,sans-serif;font-size:12px}text.terminal{fill:#fff;font-weight:700}text.nonterminal{fill:#e289a4;font-weight:400}polygon,rect{fill:none;stroke:none}rect.terminal{fill:none;stroke:#be2f5b}rect.nonterminal{fill:rgba(255,255,255,.1);stroke:none}</style></defs><polygon points="9 17 1 13 1 21"/><polygon points="17 17 9 13 9 21"/><rect width="72" height="32" x="31" y="3" rx="10"/><rect width="72" height="32" x="29" y="1" class="terminal" rx="10"/><text x="39" y="21" class="terminal">CREATE</text><a xmlns:xlink="http://www.w3.org/1999/xlink" xlink:href="#someCreateTableStatement" xlink:title="someCreateTableStatement"><rect width="198" height="32" x="123" y="3"/><rect width="198" height="32" x="121" y="1" class="nonterminal"/><text x="131" y="21" class="nonterminal">someCreateTableStatement</text></a><rect width="92" height="32" x="341" y="3" rx="10"/><rect width="92" height="32" x="339" y="1" class="terminal" rx="10"/><text x="349" y="21" class="terminal">timestamp</text><rect width="26" height="32" x="453" y="3" rx="10"/><rect width="26" height="32" x="451" y="1" class="terminal" rx="10"/><text x="461" y="21" class="terminal">(</text><a xmlns:xlink="http://www.w3.org/1999/xlink" xlink:href="#columnName" xlink:title="columnName"><rect width="102" height="32" x="499" y="3"/><rect width="102" height="32" x="497" y="1" class="nonterminal"/><text x="507" y="21" class="nonterminal">columnName</text></a><rect width="26" height="32" x="621" y="3" rx="10"/><rect width="26" height="32" x="619" y="1" class="terminal" rx="10"/><text x="629" y="21" class="terminal">)</text><path xmlns:svg="http://www.w3.org/2000/svg" d="m17 17 h2 m0 0 h10 m72 0 h10 m0 0 h10 m198 0 h10 m0 0 h10 m92 0 h10 m0 0 h10 m26 0 h10 m0 0 h10 m102 0 h10 m0 0 h10 m26 0 h10 m3 0 h-3" class="line"/><polygon points="665 17 673 13 673 21"/><polygon points="665 17 657 13 657 21"/></svg>