<svg xmlns="http://www.w3.org/2000/svg" width="631" height="220"><defs><style type="text/css">@namespace &quot;http://www.w3.org/2000/svg&quot;;.line{fill:none;stroke:#636273}text.nonterminal{font-family:-apple-system,BlinkMacSystemFont,&quot;Segoe UI&quot;,Roboto,Ubuntu,Cantarell,Helvetica,sans-serif;font-size:12px;fill:#e289a4;font-weight:400}polygon,rect{fill:none;stroke:none}rect.nonterminal{fill:rgba(255,255,255,.1);stroke:none}</style></defs><polygon points="9 51 1 47 1 55"/><polygon points="17 51 9 47 9 55"/><a xmlns:xlink="http://www.w3.org/1999/xlink" xlink:href="#query_1" xlink:title="query_1"><rect width="72" height="32" x="31" y="37"/><rect width="72" height="32" x="29" y="35" class="nonterminal"/><text x="39" y="55" class="nonterminal">query_1</text></a><a xmlns:xlink="http://www.w3.org/1999/xlink" xlink:href="#UNION" xlink:title="UNION"><rect width="60" height="32" x="143" y="37"/><rect width="60" height="32" x="141" y="35" class="nonterminal"/><text x="151" y="55" class="nonterminal">UNION</text></a><a xmlns:xlink="http://www.w3.org/1999/xlink" xlink:href="#ALL" xlink:title="ALL"><rect width="42" height="32" x="243" y="3"/><rect width="42" height="32" x="241" y="1" class="nonterminal"/><text x="251" y="21" class="nonterminal">ALL</text></a><a xmlns:xlink="http://www.w3.org/1999/xlink" xlink:href="#EXCEPT" xlink:title="EXCEPT"><rect width="68" height="32" x="143" y="81"/><rect width="68" height="32" x="141" y="79" class="nonterminal"/><text x="151" y="99" class="nonterminal">EXCEPT</text></a><a xmlns:xlink="http://www.w3.org/1999/xlink" xlink:href="#INTERSECT" xlink:title="INTERSECT"><rect width="88" height="32" x="143" y="125"/><rect width="88" height="32" x="141" y="123" class="nonterminal"/><text x="151" y="143" class="nonterminal">INTERSECT</text></a><a xmlns:xlink="http://www.w3.org/1999/xlink" xlink:href="#query_2" xlink:title="query_2"><rect width="72" height="32" x="345" y="37"/><rect width="72" height="32" x="343" y="35" class="nonterminal"/><text x="353" y="55" class="nonterminal">query_2</text></a><path xmlns:svg="http://www.w3.org/2000/svg" d="m17 51 h2 m0 0 h10 m72 0 h10 m20 0 h10 m60 0 h10 m20 0 h10 m0 0 h52 m-82 0 l20 0 m-1 0 q-9 0 -9 -10 l0 -14 q0 -10 10 -10 m62 34 l20 0 m-20 0 q10 0 10 -10 l0 -14 q0 -10 -10 -10 m-62 0 h10 m42 0 h10 m-182 34 h20 m182 0 h20 m-222 0 q10 0 10 10 m202 0 q0 -10 10 -10 m-212 10 v24 m202 0 v-24 m-202 24 q0 10 10 10 m182 0 q10 0 10 -10 m-192 10 h10 m68 0 h10 m0 0 h94 m-192 -10 v20 m202 0 v-20 m-202 20 v24 m202 0 v-24 m-202 24 q0 10 10 10 m182 0 q10 0 10 -10 m-192 10 h10 m88 0 h10 m0 0 h74 m20 -88 h10 m72 0 h10 m3 0 h-3" class="line"/><polygon points="435 51 443 47 443 55"/><polygon points="435 51 427 47 427 55"/></svg>