<svg xmlns="http://www.w3.org/2000/svg" width="800" height="290"><defs><style type="text/css">@namespace &quot;http://www.w3.org/2000/svg&quot;;.line{fill:none;stroke:#636273}text.nonterminal,text.terminal{font-family:-apple-system,BlinkMacSystemFont,&quot;Segoe UI&quot;,Roboto,Ubuntu,Cantarell,Helvetica,sans-serif;font-size:12px}text.terminal{fill:#fff;font-weight:700}text.nonterminal{fill:#e289a4;font-weight:400}polygon,rect{fill:none;stroke:none}rect.terminal{fill:none;stroke:#be2f5b}rect.nonterminal{fill:rgba(255,255,255,.1);stroke:none}</style></defs><polygon points="9 61 1 57 1 65"/><polygon points="17 61 9 57 9 65"/><a xmlns:xlink="http://www.w3.org/1999/xlink" xlink:href="#UPDATE" xlink:title="UPDATE"><rect width="68" height="32" x="31" y="47"/><rect width="68" height="32" x="29" y="45" class="nonterminal"/><text x="39" y="65" class="nonterminal">UPDATE</text></a><rect width="92" height="32" x="119" y="47" rx="10"/><rect width="92" height="32" x="117" y="45" class="terminal" rx="10"/><text x="127" y="65" class="terminal">tableName</text><a xmlns:xlink="http://www.w3.org/1999/xlink" xlink:href="#SET" xlink:title="SET"><rect width="42" height="32" x="231" y="47"/><rect width="42" height="32" x="229" y="45" class="nonterminal"/><text x="239" y="65" class="nonterminal">SET</text></a><a xmlns:xlink="http://www.w3.org/1999/xlink" xlink:href="#columnName" xlink:title="columnName"><rect width="102" height="32" x="313" y="47"/><rect width="102" height="32" x="311" y="45" class="nonterminal"/><text x="321" y="65" class="nonterminal">columnName</text></a><rect width="30" height="32" x="435" y="47" rx="10"/><rect width="30" height="32" x="433" y="45" class="terminal" rx="10"/><text x="443" y="65" class="terminal">=</text><rect width="92" height="32" x="485" y="47" rx="10"/><rect width="92" height="32" x="483" y="45" class="terminal" rx="10"/><text x="493" y="65" class="terminal">expression</text><rect width="24" height="32" x="313" y="3" rx="10"/><rect width="24" height="32" x="311" y="1" class="terminal" rx="10"/><text x="321" y="21" class="terminal">,</text><a xmlns:xlink="http://www.w3.org/1999/xlink" xlink:href="#FROM" xlink:title="FROM"><rect width="54" height="32" x="45" y="129"/><rect width="54" height="32" x="43" y="127" class="nonterminal"/><text x="53" y="147" class="nonterminal">FROM</text></a><rect width="92" height="32" x="119" y="129" rx="10"/><rect width="92" height="32" x="117" y="127" class="terminal" rx="10"/><text x="127" y="147" class="terminal">joinTable1</text><a xmlns:xlink="http://www.w3.org/1999/xlink" xlink:href="#JOIN" xlink:title="JOIN"><rect width="48" height="32" x="251" y="161"/><rect width="48" height="32" x="249" y="159" class="nonterminal"/><text x="259" y="179" class="nonterminal">JOIN</text></a><rect width="92" height="32" x="319" y="161" rx="10"/><rect width="92" height="32" x="317" y="159" class="terminal" rx="10"/><text x="327" y="179" class="terminal">joinTable2</text><a xmlns:xlink="http://www.w3.org/1999/xlink" xlink:href="#ON" xlink:title="ON"><rect width="38" height="32" x="431" y="161"/><rect width="38" height="32" x="429" y="159" class="nonterminal"/><text x="439" y="179" class="nonterminal">ON</text></a><rect width="118" height="32" x="489" y="161" rx="10"/><rect width="118" height="32" x="487" y="159" class="terminal" rx="10"/><text x="497" y="179" class="terminal">joinCondition2</text><a xmlns:xlink="http://www.w3.org/1999/xlink" xlink:href="#WHERE" xlink:title="WHERE"><rect width="66" height="32" x="483" y="247"/><rect width="66" height="32" x="481" y="245" class="nonterminal"/><text x="491" y="265" class="nonterminal">WHERE</text></a><rect width="52" height="32" x="569" y="247" rx="10"/><rect width="52" height="32" x="567" y="245" class="terminal" rx="10"/><text x="577" y="265" class="terminal">filter</text><path xmlns:svg="http://www.w3.org/2000/svg" d="m17 61 h2 m0 0 h10 m68 0 h10 m0 0 h10 m92 0 h10 m0 0 h10 m42 0 h10 m20 0 h10 m102 0 h10 m0 0 h10 m30 0 h10 m0 0 h10 m92 0 h10 m-304 0 l20 0 m-1 0 q-9 0 -9 -10 l0 -24 q0 -10 10 -10 m284 44 l20 0 m-20 0 q10 0 10 -10 l0 -24 q0 -10 -10 -10 m-284 0 h10 m24 0 h10 m0 0 h240 m22 44 l2 0 m2 0 l2 0 m2 0 l2 0 m-616 50 l2 0 m2 0 l2 0 m2 0 l2 0 m22 0 h10 m0 0 h592 m-622 0 h20 m602 0 h20 m-642 0 q10 0 10 10 m622 0 q0 -10 10 -10 m-632 10 v12 m622 0 v-12 m-622 12 q0 10 10 10 m602 0 q10 0 10 -10 m-612 10 h10 m54 0 h10 m0 0 h10 m92 0 h10 m20 0 h10 m0 0 h366 m-396 0 h20 m376 0 h20 m-416 0 q10 0 10 10 m396 0 q0 -10 10 -10 m-406 10 v12 m396 0 v-12 m-396 12 q0 10 10 10 m376 0 q10 0 10 -10 m-386 10 h10 m48 0 h10 m0 0 h10 m92 0 h10 m0 0 h10 m38 0 h10 m0 0 h10 m118 0 h10 m42 -64 l2 0 m2 0 l2 0 m2 0 l2 0 m-228 118 l2 0 m2 0 l2 0 m2 0 l2 0 m22 0 h10 m0 0 h148 m-178 0 h20 m158 0 h20 m-198 0 q10 0 10 10 m178 0 q0 -10 10 -10 m-188 10 v12 m178 0 v-12 m-178 12 q0 10 10 10 m158 0 q10 0 10 -10 m-168 10 h10 m66 0 h10 m0 0 h10 m52 0 h10 m23 -32 h-3" class="line"/><polygon points="659 229 667 225 667 233"/><polygon points="659 229 651 225 651 233"/></svg>