<svg xmlns="http://www.w3.org/2000/svg" width="447" height="50"><defs><style type="text/css">@namespace &quot;http://www.w3.org/2000/svg&quot;;.line{fill:none;stroke:#636273}text.nonterminal,text.terminal{font-family:-apple-system,BlinkMacSystemFont,&quot;Segoe UI&quot;,Roboto,Ubuntu,Cantarell,Helvetica,sans-serif;font-size:12px}text.terminal{fill:#fff;font-weight:700}text.nonterminal{fill:#e289a4;font-weight:400}polygon,rect{fill:none;stroke:none}rect.terminal{fill:none;stroke:#be2f5b}rect.nonterminal{fill:rgba(255,255,255,.1);stroke:none}</style></defs><polygon points="9 17 1 13 1 21"/><polygon points="9 17 1 13 1 21"/><polygon points="17 17 9 13 9 21"/><rect width="78" height="32" x="31" y="3" rx="10"/><rect width="78" height="32" x="29" y="1" class="terminal" rx="10"/><text x="39" y="21" class="terminal">VACUUM</text><rect width="62" height="32" x="129" y="3" rx="10"/><rect width="62" height="32" x="127" y="1" class="terminal" rx="10"/><text x="137" y="21" class="terminal">TABLE</text><a xmlns:xlink="http://www.w3.org/1999/xlink" xlink:href="#tableName" xlink:title="tableName"><rect width="88" height="32" x="211" y="3"/><rect width="88" height="32" x="209" y="1" class="nonterminal"/><text x="219" y="21" class="nonterminal">tableName</text></a><path xmlns:svg="http://www.w3.org/2000/svg" d="m17 17 h2 m0 0 h10 m78 0 h10 m0 0 h10 m62 0 h10 m0 0 h10 m88 0 h10 m3 0 h-3" class="line"/><polygon points="317 17 325 13 325 21"/><polygon points="317 17 309 13 309 21"/></svg>