<svg xmlns="http://www.w3.org/2000/svg" width="427" height="37"><defs><style type="text/css">@namespace &quot;http://www.w3.org/2000/svg&quot;;.line{fill:none;stroke:#636273}text.nonterminal,text.terminal{font-family:-apple-system,BlinkMacSystemFont,&quot;Segoe UI&quot;,Roboto,Ubuntu,Cantarell,Helvetica,sans-serif;font-size:12px}text.terminal{fill:#fff;font-weight:700}text.nonterminal{fill:#e289a4;font-weight:400}polygon,rect{fill:none;stroke:none}rect.terminal{fill:none;stroke:#be2f5b}rect.nonterminal{fill:rgba(255,255,255,.1);stroke:none}</style></defs><polygon points="9 17 1 13 1 21"/><polygon points="17 17 9 13 9 21"/><rect width="70" height="32" x="31" y="3" rx="10"/><rect width="70" height="32" x="29" y="1" class="terminal" rx="10"/><text x="39" y="21" class="terminal">WHERE</text><a xmlns:xlink="http://www.w3.org/1999/xlink" xlink:href="#column" xlink:title="column"><rect width="64" height="32" x="121" y="3"/><rect width="64" height="32" x="119" y="1" class="nonterminal"/><text x="129" y="21" class="nonterminal">column</text></a><rect width="30" height="32" x="205" y="3" rx="10"/><rect width="30" height="32" x="203" y="1" class="terminal" rx="10"/><text x="213" y="21" class="terminal">=</text><rect width="24" height="32" x="255" y="3" rx="10"/><rect width="24" height="32" x="253" y="1" class="terminal" rx="10"/><text x="263" y="21" class="terminal">&apos;</text><a xmlns:xlink="http://www.w3.org/1999/xlink" xlink:href="#string" xlink:title="string"><rect width="56" height="32" x="299" y="3"/><rect width="56" height="32" x="297" y="1" class="nonterminal"/><text x="307" y="21" class="nonterminal">string</text></a><rect width="24" height="32" x="375" y="3" rx="10"/><rect width="24" height="32" x="373" y="1" class="terminal" rx="10"/><text x="383" y="21" class="terminal">&apos;</text><path xmlns:svg="http://www.w3.org/2000/svg" d="m17 17 h2 m0 0 h10 m70 0 h10 m0 0 h10 m64 0 h10 m0 0 h10 m30 0 h10 m0 0 h10 m24 0 h10 m0 0 h10 m56 0 h10 m0 0 h10 m24 0 h10 m3 0 h-3" class="line"/><polygon points="417 17 425 13 425 21"/><polygon points="417 17 409 13 409 21"/></svg>