<svg xmlns="http://www.w3.org/2000/svg" width="579" height="189"><defs><style type="text/css">@namespace &quot;http://www.w3.org/2000/svg&quot;;.line{fill:none;stroke:#636273}text.nonterminal,text.terminal{font-family:-apple-system,BlinkMacSystemFont,&quot;Segoe UI&quot;,Roboto,Ubuntu,Cantarell,Helvetica,sans-serif;font-size:12px}text.terminal{fill:#fff;font-weight:700}text.nonterminal{fill:#e289a4;font-weight:400}polygon,rect{fill:none;stroke:none}rect.terminal{fill:none;stroke:#be2f5b}rect.nonterminal{fill:rgba(255,255,255,.1);stroke:none}</style></defs><polygon points="9 33 1 29 1 37"/><polygon points="17 33 9 29 9 37"/><rect width="70" height="32" x="31" y="19" rx="10"/><rect width="70" height="32" x="29" y="17" class="terminal" rx="10"/><text x="39" y="37" class="terminal">WHERE</text><rect width="26" height="32" x="181" y="51" rx="10"/><rect width="26" height="32" x="179" y="49" class="terminal" rx="10"/><text x="189" y="69" class="terminal">(</text><rect width="48" height="32" x="267" y="51" rx="10"/><rect width="48" height="32" x="265" y="49" class="terminal" rx="10"/><text x="275" y="69" class="terminal">AND</text><rect width="40" height="32" x="267" y="95" rx="10"/><rect width="40" height="32" x="265" y="93" class="terminal" rx="10"/><text x="275" y="113" class="terminal">OR</text><rect width="48" height="32" x="267" y="139" rx="10"/><rect width="48" height="32" x="265" y="137" class="terminal" rx="10"/><text x="275" y="157" class="terminal">NOT</text><a xmlns:xlink="http://www.w3.org/1999/xlink" xlink:href="#boolean" xlink:title="boolean"><rect width="70" height="32" x="355" y="19"/><rect width="70" height="32" x="353" y="17" class="nonterminal"/><text x="363" y="37" class="nonterminal">boolean</text></a><rect width="26" height="32" x="465" y="51" rx="10"/><rect width="26" height="32" x="463" y="49" class="terminal" rx="10"/><text x="473" y="69" class="terminal">)</text><path xmlns:svg="http://www.w3.org/2000/svg" d="m17 33 h2 m0 0 h10 m70 0 h10 m60 0 h10 m0 0 h36 m-66 0 h20 m46 0 h20 m-86 0 q10 0 10 10 m66 0 q0 -10 10 -10 m-76 10 v12 m66 0 v-12 m-66 12 q0 10 10 10 m46 0 q10 0 10 -10 m-56 10 h10 m26 0 h10 m40 -32 h10 m0 0 h58 m-88 0 h20 m68 0 h20 m-108 0 q10 0 10 10 m88 0 q0 -10 10 -10 m-98 10 v12 m88 0 v-12 m-88 12 q0 10 10 10 m68 0 q10 0 10 -10 m-78 10 h10 m48 0 h10 m-78 -10 v20 m88 0 v-20 m-88 20 v24 m88 0 v-24 m-88 24 q0 10 10 10 m68 0 q10 0 10 -10 m-78 10 h10 m40 0 h10 m0 0 h8 m-78 -10 v20 m88 0 v-20 m-88 20 v24 m88 0 v-24 m-88 24 q0 10 10 10 m68 0 q10 0 10 -10 m-78 10 h10 m48 0 h10 m20 -120 h10 m70 0 h10 m20 0 h10 m0 0 h36 m-66 0 h20 m46 0 h20 m-86 0 q10 0 10 10 m66 0 q0 -10 10 -10 m-76 10 v12 m66 0 v-12 m-66 12 q0 10 10 10 m46 0 q10 0 10 -10 m-56 10 h10 m26 0 h10 m-370 -32 l20 0 m-1 0 q-9 0 -9 -10 l0 -12 q0 -10 10 -10 m370 32 l20 0 m-20 0 q10 0 10 -10 l0 -12 q0 -10 -10 -10 m-370 0 h10 m0 0 h360 m-410 32 h20 m410 0 h20 m-450 0 q10 0 10 10 m430 0 q0 -10 10 -10 m-440 10 v134 m430 0 v-134 m-430 134 q0 10 10 10 m410 0 q10 0 10 -10 m-420 10 h10 m0 0 h400 m23 -154 h-3" class="line"/><polygon points="569 33 577 29 577 37"/><polygon points="569 33 561 29 561 37"/></svg>