<svg xmlns="http://www.w3.org/2000/svg" width="485" height="37"><defs><style type="text/css">@namespace &quot;http://www.w3.org/2000/svg&quot;;.line{fill:none;stroke:#636273}text.nonterminal,text.terminal{font-family:-apple-system,BlinkMacSystemFont,&quot;Segoe UI&quot;,Roboto,Ubuntu,Cantarell,Helvetica,sans-serif;font-size:12px}text.terminal{fill:#fff;font-weight:700}text.nonterminal{fill:#e289a4;font-weight:400}polygon,rect{fill:none;stroke:none}rect.terminal{fill:none;stroke:#be2f5b}rect.nonterminal{fill:rgba(255,255,255,.1);stroke:none}</style></defs><polygon points="9 17 1 13 1 21"/><polygon points="17 17 9 13 9 21"/><rect width="70" height="32" x="31" y="3" rx="10"/><rect width="70" height="32" x="29" y="1" class="terminal" rx="10"/><text x="39" y="21" class="terminal">WHERE</text><rect width="40" height="32" x="121" y="3" rx="10"/><rect width="40" height="32" x="119" y="1" class="terminal" rx="10"/><text x="129" y="21" class="terminal">!~</text><rect width="26" height="32" x="181" y="3" rx="10"/><rect width="26" height="32" x="179" y="1" class="terminal" rx="10"/><text x="189" y="21" class="terminal">(</text><a xmlns:xlink="http://www.w3.org/1999/xlink" xlink:href="#column" xlink:title="column"><rect width="64" height="32" x="227" y="3"/><rect width="64" height="32" x="225" y="1" class="nonterminal"/><text x="235" y="21" class="nonterminal">column</text></a><rect width="24" height="32" x="311" y="3" rx="10"/><rect width="24" height="32" x="309" y="1" class="terminal" rx="10"/><text x="319" y="21" class="terminal">;</text><a xmlns:xlink="http://www.w3.org/1999/xlink" xlink:href="#regex" xlink:title="regex"><rect width="56" height="32" x="355" y="3"/><rect width="56" height="32" x="353" y="1" class="nonterminal"/><text x="363" y="21" class="nonterminal">regex</text></a><rect width="26" height="32" x="431" y="3" rx="10"/><rect width="26" height="32" x="429" y="1" class="terminal" rx="10"/><text x="439" y="21" class="terminal">)</text><path xmlns:svg="http://www.w3.org/2000/svg" d="m17 17 h2 m0 0 h10 m70 0 h10 m0 0 h10 m40 0 h10 m0 0 h10 m26 0 h10 m0 0 h10 m64 0 h10 m0 0 h10 m24 0 h10 m0 0 h10 m56 0 h10 m0 0 h10 m26 0 h10 m3 0 h-3" class="line"/><polygon points="475 17 483 13 483 21"/><polygon points="475 17 467 13 467 21"/></svg>