<svg xmlns="http://www.w3.org/2000/svg" width="805" height="257"><defs><style type="text/css">@namespace &quot;http://www.w3.org/2000/svg&quot;;.line{fill:none;stroke:#636273}text.nonterminal,text.terminal{font-family:-apple-system,BlinkMacSystemFont,&quot;Segoe UI&quot;,Roboto,Ubuntu,Cantarell,Helvetica,sans-serif;font-size:12px}text.terminal{fill:#fff;font-weight:700}text.nonterminal{fill:#e289a4;font-weight:400}polygon,rect{fill:none;stroke:none}rect.terminal{fill:none;stroke:#be2f5b}rect.nonterminal{fill:rgba(255,255,255,.1);stroke:none}</style></defs><polygon points="9 17 1 13 1 21"/><polygon points="17 17 9 13 9 21"/><rect width="70" height="32" x="31" y="3" rx="10"/><rect width="70" height="32" x="29" y="1" class="terminal" rx="10"/><text x="39" y="21" class="terminal">WHERE</text><a xmlns:xlink="http://www.w3.org/1999/xlink" xlink:href="#timestampColumn" xlink:title="timestampColumn"><rect width="134" height="32" x="121" y="3"/><rect width="134" height="32" x="119" y="1" class="nonterminal"/><text x="129" y="21" class="nonterminal">timestampColumn</text></a><rect width="30" height="32" x="275" y="3" rx="10"/><rect width="30" height="32" x="273" y="1" class="terminal" rx="10"/><text x="283" y="21" class="terminal">IN</text><rect width="52" height="32" x="345" y="3" rx="10"/><rect width="52" height="32" x="343" y="1" class="terminal" rx="10"/><text x="353" y="21" class="terminal">yyyy</text><rect width="80" height="32" x="345" y="47" rx="10"/><rect width="80" height="32" x="343" y="45" class="terminal" rx="10"/><text x="353" y="65" class="terminal">yyyy-MM</text><rect width="106" height="32" x="345" y="91" rx="10"/><rect width="106" height="32" x="343" y="89" class="terminal" rx="10"/><text x="353" y="109" class="terminal">YYYY-MM-dd</text><rect width="128" height="32" x="345" y="135" rx="10"/><rect width="128" height="32" x="343" y="133" class="terminal" rx="10"/><text x="353" y="153" class="terminal">yyyy-MM-ddThh</text><rect width="158" height="32" x="345" y="179" rx="10"/><rect width="158" height="32" x="343" y="177" class="terminal" rx="10"/><text x="353" y="197" class="terminal">yyyy-MM-ddThh:mm</text><rect width="178" height="32" x="345" y="223" rx="10"/><rect width="178" height="32" x="343" y="221" class="terminal" rx="10"/><text x="353" y="241" class="terminal">yyyy-MM-ddThh:mm:ss</text><rect width="24" height="32" x="563" y="3" rx="10"/><rect width="24" height="32" x="561" y="1" class="terminal" rx="10"/><text x="571" y="21" class="terminal">;</text><a xmlns:xlink="http://www.w3.org/1999/xlink" xlink:href="#multiplier" xlink:title="multiplier"><rect width="78" height="32" x="607" y="3"/><rect width="78" height="32" x="605" y="1" class="nonterminal"/><text x="615" y="21" class="nonterminal">multiplier</text></a><rect width="28" height="32" x="725" y="3" rx="10"/><rect width="28" height="32" x="723" y="1" class="terminal" rx="10"/><text x="733" y="21" class="terminal">y</text><rect width="30" height="32" x="725" y="47" rx="10"/><rect width="30" height="32" x="723" y="45" class="terminal" rx="10"/><text x="733" y="65" class="terminal">M</text><rect width="28" height="32" x="725" y="91" rx="10"/><rect width="28" height="32" x="723" y="89" class="terminal" rx="10"/><text x="733" y="109" class="terminal">d</text><rect width="28" height="32" x="725" y="135" rx="10"/><rect width="28" height="32" x="723" y="133" class="terminal" rx="10"/><text x="733" y="153" class="terminal">h</text><rect width="32" height="32" x="725" y="179" rx="10"/><rect width="32" height="32" x="723" y="177" class="terminal" rx="10"/><text x="733" y="197" class="terminal">m</text><rect width="26" height="32" x="725" y="223" rx="10"/><rect width="26" height="32" x="723" y="221" class="terminal" rx="10"/><text x="733" y="241" class="terminal">s</text><path xmlns:svg="http://www.w3.org/2000/svg" d="m17 17 h2 m0 0 h10 m70 0 h10 m0 0 h10 m134 0 h10 m0 0 h10 m30 0 h10 m20 0 h10 m52 0 h10 m0 0 h126 m-218 0 h20 m198 0 h20 m-238 0 q10 0 10 10 m218 0 q0 -10 10 -10 m-228 10 v24 m218 0 v-24 m-218 24 q0 10 10 10 m198 0 q10 0 10 -10 m-208 10 h10 m80 0 h10 m0 0 h98 m-208 -10 v20 m218 0 v-20 m-218 20 v24 m218 0 v-24 m-218 24 q0 10 10 10 m198 0 q10 0 10 -10 m-208 10 h10 m106 0 h10 m0 0 h72 m-208 -10 v20 m218 0 v-20 m-218 20 v24 m218 0 v-24 m-218 24 q0 10 10 10 m198 0 q10 0 10 -10 m-208 10 h10 m128 0 h10 m0 0 h50 m-208 -10 v20 m218 0 v-20 m-218 20 v24 m218 0 v-24 m-218 24 q0 10 10 10 m198 0 q10 0 10 -10 m-208 10 h10 m158 0 h10 m0 0 h20 m-208 -10 v20 m218 0 v-20 m-218 20 v24 m218 0 v-24 m-218 24 q0 10 10 10 m198 0 q10 0 10 -10 m-208 10 h10 m178 0 h10 m20 -220 h10 m24 0 h10 m0 0 h10 m78 0 h10 m20 0 h10 m28 0 h10 m0 0 h4 m-72 0 h20 m52 0 h20 m-92 0 q10 0 10 10 m72 0 q0 -10 10 -10 m-82 10 v24 m72 0 v-24 m-72 24 q0 10 10 10 m52 0 q10 0 10 -10 m-62 10 h10 m30 0 h10 m0 0 h2 m-62 -10 v20 m72 0 v-20 m-72 20 v24 m72 0 v-24 m-72 24 q0 10 10 10 m52 0 q10 0 10 -10 m-62 10 h10 m28 0 h10 m0 0 h4 m-62 -10 v20 m72 0 v-20 m-72 20 v24 m72 0 v-24 m-72 24 q0 10 10 10 m52 0 q10 0 10 -10 m-62 10 h10 m28 0 h10 m0 0 h4 m-62 -10 v20 m72 0 v-20 m-72 20 v24 m72 0 v-24 m-72 24 q0 10 10 10 m52 0 q10 0 10 -10 m-62 10 h10 m32 0 h10 m-62 -10 v20 m72 0 v-20 m-72 20 v24 m72 0 v-24 m-72 24 q0 10 10 10 m52 0 q10 0 10 -10 m-62 10 h10 m26 0 h10 m0 0 h6 m23 -220 h-3" class="line"/><polygon points="795 17 803 13 803 21"/><polygon points="795 17 787 13 787 21"/></svg>