<svg xmlns="http://www.w3.org/2000/svg" width="567" height="257"><defs><style type="text/css">@namespace &quot;http://www.w3.org/2000/svg&quot;;.line{fill:none;stroke:#636273}text.nonterminal,text.terminal{font-family:-apple-system,BlinkMacSystemFont,&quot;Segoe UI&quot;,Roboto,Ubuntu,Cantarell,Helvetica,sans-serif;font-size:12px}text.terminal{fill:#fff;font-weight:700}text.nonterminal{fill:#e289a4;font-weight:400}polygon,rect{fill:none;stroke:none}rect.terminal{fill:none;stroke:#be2f5b}rect.nonterminal{fill:rgba(255,255,255,.1);stroke:none}</style></defs><polygon points="9 17 1 13 1 21"/><polygon points="17 17 9 13 9 21"/><rect width="70" height="32" x="31" y="3" rx="10"/><rect width="70" height="32" x="29" y="1" class="terminal" rx="10"/><text x="39" y="21" class="terminal">WHERE</text><a xmlns:xlink="http://www.w3.org/1999/xlink" xlink:href="#timestampColumn" xlink:title="timestampColumn"><rect width="134" height="32" x="121" y="3"/><rect width="134" height="32" x="119" y="1" class="nonterminal"/><text x="129" y="21" class="nonterminal">timestampColumn</text></a><rect width="30" height="32" x="275" y="3" rx="10"/><rect width="30" height="32" x="273" y="1" class="terminal" rx="10"/><text x="283" y="21" class="terminal">IN</text><rect width="52" height="32" x="345" y="3" rx="10"/><rect width="52" height="32" x="343" y="1" class="terminal" rx="10"/><text x="353" y="21" class="terminal">yyyy</text><rect width="80" height="32" x="345" y="47" rx="10"/><rect width="80" height="32" x="343" y="45" class="terminal" rx="10"/><text x="353" y="65" class="terminal">yyyy-MM</text><rect width="106" height="32" x="345" y="91" rx="10"/><rect width="106" height="32" x="343" y="89" class="terminal" rx="10"/><text x="353" y="109" class="terminal">YYYY-MM-dd</text><rect width="126" height="32" x="345" y="135" rx="10"/><rect width="126" height="32" x="343" y="133" class="terminal" rx="10"/><text x="353" y="153" class="terminal">yyyy-MM-ddThh</text><rect width="156" height="32" x="345" y="179" rx="10"/><rect width="156" height="32" x="343" y="177" class="terminal" rx="10"/><text x="353" y="197" class="terminal">yyyy-MM-ddThh:mm</text><rect width="174" height="32" x="345" y="223" rx="10"/><rect width="174" height="32" x="343" y="221" class="terminal" rx="10"/><text x="353" y="241" class="terminal">yyyy-MM-ddThh:mm:ss</text><path xmlns:svg="http://www.w3.org/2000/svg" d="m17 17 h2 m0 0 h10 m70 0 h10 m0 0 h10 m134 0 h10 m0 0 h10 m30 0 h10 m20 0 h10 m52 0 h10 m0 0 h122 m-214 0 h20 m194 0 h20 m-234 0 q10 0 10 10 m214 0 q0 -10 10 -10 m-224 10 v24 m214 0 v-24 m-214 24 q0 10 10 10 m194 0 q10 0 10 -10 m-204 10 h10 m80 0 h10 m0 0 h94 m-204 -10 v20 m214 0 v-20 m-214 20 v24 m214 0 v-24 m-214 24 q0 10 10 10 m194 0 q10 0 10 -10 m-204 10 h10 m106 0 h10 m0 0 h68 m-204 -10 v20 m214 0 v-20 m-214 20 v24 m214 0 v-24 m-214 24 q0 10 10 10 m194 0 q10 0 10 -10 m-204 10 h10 m126 0 h10 m0 0 h48 m-204 -10 v20 m214 0 v-20 m-214 20 v24 m214 0 v-24 m-214 24 q0 10 10 10 m194 0 q10 0 10 -10 m-204 10 h10 m156 0 h10 m0 0 h18 m-204 -10 v20 m214 0 v-20 m-214 20 v24 m214 0 v-24 m-214 24 q0 10 10 10 m194 0 q10 0 10 -10 m-204 10 h10 m174 0 h10 m23 -220 h-3" class="line"/><polygon points="557 17 565 13 565 21"/><polygon points="557 17 549 13 549 21"/></svg>