<svg xmlns="http://www.w3.org/2000/svg" width="619" height="113"><defs><style type="text/css">@namespace &quot;http://www.w3.org/2000/svg&quot;;.line{fill:none;stroke:#636273}text.nonterminal,text.terminal{font-family:-apple-system,BlinkMacSystemFont,&quot;Segoe UI&quot;,Roboto,Ubuntu,Cantarell,Helvetica,sans-serif;font-size:12px}text.terminal{fill:#fff;font-weight:700}text.nonterminal{fill:#e289a4;font-weight:400}polygon,rect{fill:none;stroke:none}rect.terminal{fill:none;stroke:#be2f5b}rect.nonterminal{fill:rgba(255,255,255,.1);stroke:none}</style></defs><polygon points="9 61 1 57 1 65"/><polygon points="17 61 9 57 9 65"/><rect width="70" height="32" x="31" y="47" rx="10"/><rect width="70" height="32" x="29" y="45" class="terminal" rx="10"/><text x="39" y="65" class="terminal">WHERE</text><rect width="48" height="32" x="141" y="79" rx="10"/><rect width="48" height="32" x="139" y="77" class="terminal" rx="10"/><text x="149" y="97" class="terminal">NOT</text><a xmlns:xlink="http://www.w3.org/1999/xlink" xlink:href="#columnName" xlink:title="columnName"><rect width="102" height="32" x="229" y="47"/><rect width="102" height="32" x="227" y="45" class="nonterminal"/><text x="237" y="65" class="nonterminal">columnName</text></a><rect width="32" height="32" x="351" y="47" rx="10"/><rect width="32" height="32" x="349" y="45" class="terminal" rx="10"/><text x="359" y="65" class="terminal">in</text><rect width="26" height="32" x="403" y="47" rx="10"/><rect width="26" height="32" x="401" y="45" class="terminal" rx="10"/><text x="411" y="65" class="terminal">(</text><a xmlns:xlink="http://www.w3.org/1999/xlink" xlink:href="#string" xlink:title="string"><rect width="56" height="32" x="469" y="47"/><rect width="56" height="32" x="467" y="45" class="nonterminal"/><text x="477" y="65" class="nonterminal">string</text></a><rect width="24" height="32" x="469" y="3" rx="10"/><rect width="24" height="32" x="467" y="1" class="terminal" rx="10"/><text x="477" y="21" class="terminal">,</text><rect width="26" height="32" x="565" y="47" rx="10"/><rect width="26" height="32" x="563" y="45" class="terminal" rx="10"/><text x="573" y="65" class="terminal">)</text><path xmlns:svg="http://www.w3.org/2000/svg" d="m17 61 h2 m0 0 h10 m70 0 h10 m20 0 h10 m0 0 h58 m-88 0 h20 m68 0 h20 m-108 0 q10 0 10 10 m88 0 q0 -10 10 -10 m-98 10 v12 m88 0 v-12 m-88 12 q0 10 10 10 m68 0 q10 0 10 -10 m-78 10 h10 m48 0 h10 m20 -32 h10 m102 0 h10 m0 0 h10 m32 0 h10 m0 0 h10 m26 0 h10 m20 0 h10 m56 0 h10 m-96 0 l20 0 m-1 0 q-9 0 -9 -10 l0 -24 q0 -10 10 -10 m76 44 l20 0 m-20 0 q10 0 10 -10 l0 -24 q0 -10 -10 -10 m-76 0 h10 m24 0 h10 m0 0 h32 m20 44 h10 m26 0 h10 m3 0 h-3" class="line"/><polygon points="609 61 617 57 617 65"/><polygon points="609 61 601 57 601 65"/></svg>