<svg xmlns="http://www.w3.org/2000/svg" width="671" height="37"><defs><style type="text/css">@namespace &quot;http://www.w3.org/2000/svg&quot;;.line{fill:none;stroke:#636273}text.nonterminal,text.terminal{font-family:-apple-system,BlinkMacSystemFont,&quot;Segoe UI&quot;,Roboto,Ubuntu,Cantarell,Helvetica,sans-serif;font-size:12px}text.terminal{fill:#fff;font-weight:700}text.nonterminal{fill:#e289a4;font-weight:400}polygon,rect{fill:none;stroke:none}rect.terminal{fill:none;stroke:#be2f5b}rect.nonterminal{fill:rgba(255,255,255,.1);stroke:none}</style></defs><polygon points="9 17 1 13 1 21"/><polygon points="17 17 9 13 9 21"/><rect width="70" height="32" x="31" y="3" rx="10"/><rect width="70" height="32" x="29" y="1" class="terminal" rx="10"/><text x="39" y="21" class="terminal">WHERE</text><a xmlns:xlink="http://www.w3.org/1999/xlink" xlink:href="#timestamp" xlink:title="timestamp"><rect width="88" height="32" x="121" y="3"/><rect width="88" height="32" x="119" y="1" class="nonterminal"/><text x="129" y="21" class="nonterminal">timestamp</text></a><rect width="32" height="32" x="229" y="3" rx="10"/><rect width="32" height="32" x="227" y="1" class="terminal" rx="10"/><text x="237" y="21" class="terminal">in</text><rect width="26" height="32" x="281" y="3" rx="10"/><rect width="26" height="32" x="279" y="1" class="terminal" rx="10"/><text x="289" y="21" class="terminal">(</text><a xmlns:xlink="http://www.w3.org/1999/xlink" xlink:href="#upper_bound" xlink:title="upper_bound"><rect width="104" height="32" x="327" y="3"/><rect width="104" height="32" x="325" y="1" class="nonterminal"/><text x="335" y="21" class="nonterminal">lower_bound</text></a><rect width="24" height="32" x="451" y="3" rx="10"/><rect width="24" height="32" x="449" y="1" class="terminal" rx="10"/><text x="459" y="21" class="terminal">,</text><a xmlns:xlink="http://www.w3.org/1999/xlink" xlink:href="#lower_bound" xlink:title="lower_bound"><rect width="102" height="32" x="495" y="3"/><rect width="102" height="32" x="493" y="1" class="nonterminal"/><text x="503" y="21" class="nonterminal">upper_bound</text></a><rect width="26" height="32" x="617" y="3" rx="10"/><rect width="26" height="32" x="615" y="1" class="terminal" rx="10"/><text x="625" y="21" class="terminal">)</text><path xmlns:svg="http://www.w3.org/2000/svg" d="m17 17 h2 m0 0 h10 m70 0 h10 m0 0 h10 m88 0 h10 m0 0 h10 m32 0 h10 m0 0 h10 m26 0 h10 m0 0 h10 m104 0 h10 m0 0 h10 m24 0 h10 m0 0 h10 m102 0 h10 m0 0 h10 m26 0 h10 m3 0 h-3" class="line"/><polygon points="661 17 669 13 669 21"/><polygon points="661 17 653 13 653 21"/></svg>