<svg xmlns="http://www.w3.org/2000/svg" width="619" height="37"><defs><style type="text/css">@namespace &quot;http://www.w3.org/2000/svg&quot;;.line{fill:none;stroke:#636273}text.nonterminal,text.terminal{font-family:-apple-system,BlinkMacSystemFont,&quot;Segoe UI&quot;,Roboto,Ubuntu,Cantarell,Helvetica,sans-serif;font-size:12px}text.terminal{fill:#fff;font-weight:700}text.nonterminal{fill:#e289a4;font-weight:400}polygon,rect{fill:none;stroke:none}rect.terminal{fill:none;stroke:#be2f5b}rect.nonterminal{fill:rgba(255,255,255,.1);stroke:none}</style></defs><polygon points="9 17 1 13 1 21"/><polygon points="17 17 9 13 9 21"/><rect width="70" height="32" x="31" y="3" rx="10"/><rect width="70" height="32" x="29" y="1" class="terminal" rx="10"/><text x="39" y="21" class="terminal">WHERE</text><rect width="36" height="32" x="121" y="3" rx="10"/><rect width="36" height="32" x="119" y="1" class="terminal" rx="10"/><text x="129" y="21" class="terminal">eq</text><rect width="26" height="32" x="177" y="3" rx="10"/><rect width="26" height="32" x="175" y="1" class="terminal" rx="10"/><text x="185" y="21" class="terminal">(</text><a xmlns:xlink="http://www.w3.org/1999/xlink" xlink:href="#column" xlink:title="column"><rect width="64" height="32" x="223" y="3"/><rect width="64" height="32" x="221" y="1" class="nonterminal"/><text x="231" y="21" class="nonterminal">column</text></a><rect width="24" height="32" x="307" y="3" rx="10"/><rect width="24" height="32" x="305" y="1" class="terminal" rx="10"/><text x="315" y="21" class="terminal">,</text><a xmlns:xlink="http://www.w3.org/1999/xlink" xlink:href="#value" xlink:title="value"><rect width="54" height="32" x="351" y="3"/><rect width="54" height="32" x="349" y="1" class="nonterminal"/><text x="359" y="21" class="nonterminal">value</text></a><rect width="24" height="32" x="425" y="3" rx="10"/><rect width="24" height="32" x="423" y="1" class="terminal" rx="10"/><text x="433" y="21" class="terminal">,</text><a xmlns:xlink="http://www.w3.org/1999/xlink" xlink:href="#precision" xlink:title="precision"><rect width="76" height="32" x="469" y="3"/><rect width="76" height="32" x="467" y="1" class="nonterminal"/><text x="477" y="21" class="nonterminal">precision</text></a><rect width="26" height="32" x="565" y="3" rx="10"/><rect width="26" height="32" x="563" y="1" class="terminal" rx="10"/><text x="573" y="21" class="terminal">)</text><path xmlns:svg="http://www.w3.org/2000/svg" d="m17 17 h2 m0 0 h10 m70 0 h10 m0 0 h10 m36 0 h10 m0 0 h10 m26 0 h10 m0 0 h10 m64 0 h10 m0 0 h10 m24 0 h10 m0 0 h10 m54 0 h10 m0 0 h10 m24 0 h10 m0 0 h10 m76 0 h10 m0 0 h10 m26 0 h10 m3 0 h-3" class="line"/><polygon points="609 17 617 13 617 21"/><polygon points="609 17 601 13 601 21"/></svg>