<svg xmlns="http://www.w3.org/2000/svg" width="359" height="69"><defs><style type="text/css">@namespace &quot;http://www.w3.org/2000/svg&quot;;.line{fill:none;stroke:#636273}text.nonterminal,text.terminal{font-family:-apple-system,BlinkMacSystemFont,&quot;Segoe UI&quot;,Roboto,Ubuntu,Cantarell,Helvetica,sans-serif;font-size:12px}text.terminal{fill:#fff;font-weight:700}text.nonterminal{fill:#e289a4;font-weight:400}polygon,rect{fill:none;stroke:none}rect.terminal{fill:none;stroke:#be2f5b}rect.nonterminal{fill:rgba(255,255,255,.1);stroke:none}</style></defs><polygon points="9 17 1 13 1 21"/><polygon points="17 17 9 13 9 21"/><rect width="70" height="32" x="31" y="3" rx="10"/><rect width="70" height="32" x="29" y="1" class="terminal" rx="10"/><text x="39" y="21" class="terminal">WHERE</text><rect width="48" height="32" x="141" y="35" rx="10"/><rect width="48" height="32" x="139" y="33" class="terminal" rx="10"/><text x="149" y="53" class="terminal">NOT</text><a xmlns:xlink="http://www.w3.org/1999/xlink" xlink:href="#columnName" xlink:title="columnName"><rect width="102" height="32" x="229" y="3"/><rect width="102" height="32" x="227" y="1" class="nonterminal"/><text x="237" y="21" class="nonterminal">columnName</text></a><path xmlns:svg="http://www.w3.org/2000/svg" d="m17 17 h2 m0 0 h10 m70 0 h10 m20 0 h10 m0 0 h58 m-88 0 h20 m68 0 h20 m-108 0 q10 0 10 10 m88 0 q0 -10 10 -10 m-98 10 v12 m88 0 v-12 m-88 12 q0 10 10 10 m68 0 q10 0 10 -10 m-78 10 h10 m48 0 h10 m20 -32 h10 m102 0 h10 m3 0 h-3" class="line"/><polygon points="349 17 357 13 357 21"/><polygon points="349 17 341 13 341 21"/></svg>