<svg xmlns="http://www.w3.org/2000/svg" width="387" height="257"><defs><style type="text/css">@namespace &quot;http://www.w3.org/2000/svg&quot;;.line{fill:none;stroke:#636273}text.nonterminal,text.terminal{font-family:-apple-system,BlinkMacSystemFont,&quot;Segoe UI&quot;,Roboto,Ubuntu,Cantarell,Helvetica,sans-serif;font-size:12px}text.terminal{fill:#fff;font-weight:700}text.nonterminal{fill:#e289a4;font-weight:400}polygon,rect{fill:none;stroke:none}rect.terminal{fill:none;stroke:#be2f5b}rect.nonterminal{fill:rgba(255,255,255,.1);stroke:none}</style></defs><polygon points="9 17 1 13 1 21"/><polygon points="17 17 9 13 9 21"/><rect width="70" height="32" x="31" y="3" rx="10"/><rect width="70" height="32" x="29" y="1" class="terminal" rx="10"/><text x="39" y="21" class="terminal">WHERE</text><a xmlns:xlink="http://www.w3.org/1999/xlink" xlink:href="#column" xlink:title="column"><rect width="64" height="32" x="121" y="3"/><rect width="64" height="32" x="119" y="1" class="nonterminal"/><text x="129" y="21" class="nonterminal">column</text></a><rect width="30" height="32" x="225" y="3" rx="10"/><rect width="30" height="32" x="223" y="1" class="terminal" rx="10"/><text x="233" y="21" class="terminal">=</text><rect width="34" height="32" x="225" y="47" rx="10"/><rect width="34" height="32" x="223" y="45" class="terminal" rx="10"/><text x="233" y="65" class="terminal">!=</text><rect width="30" height="32" x="225" y="91" rx="10"/><rect width="30" height="32" x="223" y="89" class="terminal" rx="10"/><text x="233" y="109" class="terminal">&gt;</text><rect width="40" height="32" x="225" y="135" rx="10"/><rect width="40" height="32" x="223" y="133" class="terminal" rx="10"/><text x="233" y="153" class="terminal">&gt;=</text><rect width="30" height="32" x="225" y="179" rx="10"/><rect width="30" height="32" x="223" y="177" class="terminal" rx="10"/><text x="233" y="197" class="terminal">&lt;</text><rect width="40" height="32" x="225" y="223" rx="10"/><rect width="40" height="32" x="223" y="221" class="terminal" rx="10"/><text x="233" y="241" class="terminal">&lt;=</text><a xmlns:xlink="http://www.w3.org/1999/xlink" xlink:href="#value" xlink:title="value"><rect width="54" height="32" x="305" y="3"/><rect width="54" height="32" x="303" y="1" class="nonterminal"/><text x="313" y="21" class="nonterminal">value</text></a><path xmlns:svg="http://www.w3.org/2000/svg" d="m17 17 h2 m0 0 h10 m70 0 h10 m0 0 h10 m64 0 h10 m20 0 h10 m30 0 h10 m0 0 h10 m-80 0 h20 m60 0 h20 m-100 0 q10 0 10 10 m80 0 q0 -10 10 -10 m-90 10 v24 m80 0 v-24 m-80 24 q0 10 10 10 m60 0 q10 0 10 -10 m-70 10 h10 m34 0 h10 m0 0 h6 m-70 -10 v20 m80 0 v-20 m-80 20 v24 m80 0 v-24 m-80 24 q0 10 10 10 m60 0 q10 0 10 -10 m-70 10 h10 m30 0 h10 m0 0 h10 m-70 -10 v20 m80 0 v-20 m-80 20 v24 m80 0 v-24 m-80 24 q0 10 10 10 m60 0 q10 0 10 -10 m-70 10 h10 m40 0 h10 m-70 -10 v20 m80 0 v-20 m-80 20 v24 m80 0 v-24 m-80 24 q0 10 10 10 m60 0 q10 0 10 -10 m-70 10 h10 m30 0 h10 m0 0 h10 m-70 -10 v20 m80 0 v-20 m-80 20 v24 m80 0 v-24 m-80 24 q0 10 10 10 m60 0 q10 0 10 -10 m-70 10 h10 m40 0 h10 m20 -220 h10 m54 0 h10 m3 0 h-3" class="line"/><polygon points="377 17 385 13 385 21"/><polygon points="377 17 369 13 369 21"/></svg>