<svg xmlns="http://www.w3.org/2000/svg" width="452" height="80"><defs><style type="text/css">@namespace &quot;http://www.w3.org/2000/svg&quot;;.line{fill:none;stroke:#636273}text.nonterminal,text.terminal{font-family:-apple-system,BlinkMacSystemFont,&quot;Segoe UI&quot;,Roboto,Ubuntu,Cantarell,Helvetica,sans-serif;font-size:12px}text.terminal{fill:#fff;font-weight:700}text.nonterminal{fill:#e289a4;font-weight:400}polygon,rect{fill:none;stroke:none}rect.terminal{fill:none;stroke:#be2f5b}rect.nonterminal{fill:rgba(255,255,255,.1);stroke:none}</style></defs><polygon points="9 17 1 13 1 21"/><polygon points="17 17 9 13 9 21"/><a xmlns:xlink="http://www.w3.org/1999/xlink" xlink:href="#select_statement" xlink:title="select_statement"><rect width="130" height="32" x="51" y="3"/><rect width="130" height="32" x="49" y="1" class="nonterminal"/><text x="59" y="21" class="nonterminal">select_statement</text></a><rect width="26" height="32" x="51" y="47" rx="10"/><rect width="26" height="32" x="49" y="45" class="terminal" rx="10"/><text x="59" y="65" class="terminal">(</text><a xmlns:xlink="http://www.w3.org/1999/xlink" xlink:href="#query" xlink:title="query"><rect width="56" height="32" x="97" y="47"/><rect width="56" height="32" x="95" y="45" class="nonterminal"/><text x="105" y="65" class="nonterminal">query</text></a><rect width="26" height="32" x="173" y="47" rx="10"/><rect width="26" height="32" x="171" y="45" class="terminal" rx="10"/><text x="181" y="65" class="terminal">)</text><a xmlns:xlink="http://www.w3.org/1999/xlink" xlink:href="#where" xlink:title="where"><rect width="60" height="32" x="239" y="3"/><rect width="60" height="32" x="237" y="1" class="nonterminal"/><text x="247" y="21" class="nonterminal">where</text></a><a xmlns:xlink="http://www.w3.org/1999/xlink" xlink:href="#boolean_expr" xlink:title="boolean_expr"><rect width="106" height="32" x="319" y="3"/><rect width="106" height="32" x="317" y="1" class="nonterminal"/><text x="327" y="21" class="nonterminal">boolean_expr</text></a><svg:path xmlns:svg="http://www.w3.org/2000/svg" d="m17 17 h2 m20 0 h10 m130 0 h10 m0 0 h18 m-188 0 h20 m168 0 h20 m-208 0 q10 0 10 10 m188 0 q0 -10 10 -10 m-198 10 v24 m188 0 v-24 m-188 24 q0 10 10 10 m168 0 q10 0 10 -10 m-178 10 h10 m26 0 h10 m0 0 h10 m56 0 h10 m0 0 h10 m26 0 h10 m20 -44 h10 m60 0 h10 m0 0 h10 m106 0 h10 m3 0 h-3" class="line"/><polygon points="443 17 451 13 451 21"/><polygon points="443 17 435 13 435 21"/></svg>