<svg xmlns="http://www.w3.org/2000/svg" width="651" height="81"><defs><style type="text/css">@namespace &quot;http://www.w3.org/2000/svg&quot;;.line{fill:none;stroke:#636273}text.nonterminal,text.terminal{font-family:-apple-system,BlinkMacSystemFont,&quot;Segoe UI&quot;,Roboto,Ubuntu,Cantarell,Helvetica,sans-serif;font-size:12px}text.terminal{fill:#fff;font-weight:700}text.nonterminal{fill:#e289a4;font-weight:400}polygon,rect{fill:none;stroke:none}rect.terminal{fill:none;stroke:#be2f5b}rect.nonterminal{fill:rgba(255,255,255,.1);stroke:none}</style></defs><polygon points="9 61 1 57 1 65"/><polygon points="17 61 9 57 9 65"/><rect width="58" height="32" x="31" y="47" rx="10"/><rect width="58" height="32" x="29" y="45" class="terminal" rx="10"/><text x="39" y="65" class="terminal">WITH</text><a xmlns:xlink="http://www.w3.org/1999/xlink" xlink:href="#subQueryName" xlink:title="subQueryName"><rect width="116" height="32" x="129" y="47"/><rect width="116" height="32" x="127" y="45" class="nonterminal"/><text x="137" y="65" class="nonterminal">subQueryName</text></a><rect width="38" height="32" x="265" y="47" rx="10"/><rect width="38" height="32" x="263" y="45" class="terminal" rx="10"/><text x="273" y="65" class="terminal">AS</text><rect width="26" height="32" x="323" y="47" rx="10"/><rect width="26" height="32" x="321" y="45" class="terminal" rx="10"/><text x="331" y="65" class="terminal">(</text><a xmlns:xlink="http://www.w3.org/1999/xlink" xlink:href="#subQuery" xlink:title="subQuery"><rect width="80" height="32" x="369" y="47"/><rect width="80" height="32" x="367" y="45" class="nonterminal"/><text x="377" y="65" class="nonterminal">subQuery</text></a><rect width="26" height="32" x="469" y="47" rx="10"/><rect width="26" height="32" x="467" y="45" class="terminal" rx="10"/><text x="477" y="65" class="terminal">)</text><rect width="24" height="32" x="129" y="3" rx="10"/><rect width="24" height="32" x="127" y="1" class="terminal" rx="10"/><text x="137" y="21" class="terminal">,</text><a xmlns:xlink="http://www.w3.org/1999/xlink" xlink:href="#mainQuery" xlink:title="mainQuery"><rect width="88" height="32" x="535" y="47"/><rect width="88" height="32" x="533" y="45" class="nonterminal"/><text x="543" y="65" class="nonterminal">mainQuery</text></a><path xmlns:svg="http://www.w3.org/2000/svg" d="m17 61 h2 m0 0 h10 m58 0 h10 m20 0 h10 m116 0 h10 m0 0 h10 m38 0 h10 m0 0 h10 m26 0 h10 m0 0 h10 m80 0 h10 m0 0 h10 m26 0 h10 m-406 0 l20 0 m-1 0 q-9 0 -9 -10 l0 -24 q0 -10 10 -10 m386 44 l20 0 m-20 0 q10 0 10 -10 l0 -24 q0 -10 -10 -10 m-386 0 h10 m24 0 h10 m0 0 h342 m20 44 h10 m88 0 h10 m3 0 h-3" class="line"/><polygon points="641 61 649 57 649 65"/><polygon points="641 61 633 57 633 65"/></svg>